<mxfile host="app.diagrams.net" agent="Mozilla/5.0 (Windows NT 10.0; Win64; x64) AppleWebKit/537.36 (KHTML, like Gecko) Chrome/131.0.0.0 Safari/537.36 Edg/131.0.0.0" version="26.0.5">
  <diagram name="Page-1" id="pWIvuMUIT-j1xOhzZsgd">
    <mxGraphModel dx="1577" dy="1185" grid="1" gridSize="10" guides="1" tooltips="1" connect="1" arrows="1" fold="1" page="1" pageScale="1" pageWidth="827" pageHeight="1169" math="0" shadow="0">
      <root>
        <mxCell id="0" />
        <mxCell id="1" parent="0" />
        <mxCell id="mdohe5RoHkzdU5tUn_Dr-1" value="Contexte : Projet académique pour Télécom Saint Etienne" style="rounded=0;whiteSpace=wrap;html=1;" parent="1" vertex="1">
          <mxGeometry x="10" y="20" width="170" height="60" as="geometry" />
        </mxCell>
        <mxCell id="mdohe5RoHkzdU5tUn_Dr-8" style="edgeStyle=orthogonalEdgeStyle;rounded=0;orthogonalLoop=1;jettySize=auto;html=1;exitX=0.5;exitY=0;exitDx=0;exitDy=0;entryX=0.5;entryY=1;entryDx=0;entryDy=0;" parent="1" source="mdohe5RoHkzdU5tUn_Dr-2" target="mdohe5RoHkzdU5tUn_Dr-3" edge="1">
          <mxGeometry relative="1" as="geometry" />
        </mxCell>
        <mxCell id="mdohe5RoHkzdU5tUn_Dr-2" value="Démonstration académique" style="rounded=0;whiteSpace=wrap;html=1;" parent="1" vertex="1">
          <mxGeometry x="259" y="430" width="230" height="60" as="geometry" />
        </mxCell>
        <mxCell id="mdohe5RoHkzdU5tUn_Dr-9" style="edgeStyle=orthogonalEdgeStyle;rounded=0;orthogonalLoop=1;jettySize=auto;html=1;exitX=0;exitY=0;exitDx=0;exitDy=0;entryX=0.5;entryY=1;entryDx=0;entryDy=0;" parent="1" source="mdohe5RoHkzdU5tUn_Dr-3" target="mdohe5RoHkzdU5tUn_Dr-4" edge="1">
          <mxGeometry relative="1" as="geometry" />
        </mxCell>
        <mxCell id="mdohe5RoHkzdU5tUn_Dr-10" style="edgeStyle=orthogonalEdgeStyle;rounded=0;orthogonalLoop=1;jettySize=auto;html=1;exitX=1;exitY=0;exitDx=0;exitDy=0;entryX=0.5;entryY=1;entryDx=0;entryDy=0;" parent="1" source="mdohe5RoHkzdU5tUn_Dr-3" target="mdohe5RoHkzdU5tUn_Dr-5" edge="1">
          <mxGeometry relative="1" as="geometry" />
        </mxCell>
        <mxCell id="mdohe5RoHkzdU5tUn_Dr-3" value="Tripot Robot" style="ellipse;whiteSpace=wrap;html=1;" parent="1" vertex="1">
          <mxGeometry x="301" y="300" width="146" height="80" as="geometry" />
        </mxCell>
        <mxCell id="mdohe5RoHkzdU5tUn_Dr-4" value="Personne intéressé par la robotique ou les dames" style="ellipse;whiteSpace=wrap;html=1;" parent="1" vertex="1">
          <mxGeometry x="150" y="180" width="120" height="80" as="geometry" />
        </mxCell>
        <mxCell id="mdohe5RoHkzdU5tUn_Dr-5" value="- Montrer&lt;div&gt;- Intéresser&amp;nbsp;&lt;/div&gt;&lt;div&gt;- Questionner&lt;/div&gt;&lt;div&gt;- Apprendre&lt;/div&gt;" style="ellipse;whiteSpace=wrap;html=1;" parent="1" vertex="1">
          <mxGeometry x="450" y="180" width="120" height="80" as="geometry" />
        </mxCell>
        <mxCell id="mdohe5RoHkzdU5tUn_Dr-24" style="edgeStyle=orthogonalEdgeStyle;rounded=0;orthogonalLoop=1;jettySize=auto;html=1;exitX=0;exitY=0.5;exitDx=0;exitDy=0;startArrow=classic;startFill=0;endArrow=none;endFill=0;" parent="1" source="mdohe5RoHkzdU5tUn_Dr-6" edge="1">
          <mxGeometry relative="1" as="geometry">
            <mxPoint x="120" y="600" as="targetPoint" />
          </mxGeometry>
        </mxCell>
        <mxCell id="mdohe5RoHkzdU5tUn_Dr-25" style="edgeStyle=orthogonalEdgeStyle;rounded=0;orthogonalLoop=1;jettySize=auto;html=1;exitX=1;exitY=0.5;exitDx=0;exitDy=0;" parent="1" source="mdohe5RoHkzdU5tUn_Dr-6" edge="1">
          <mxGeometry relative="1" as="geometry">
            <mxPoint x="650" y="600" as="targetPoint" />
          </mxGeometry>
        </mxCell>
        <mxCell id="mdohe5RoHkzdU5tUn_Dr-6" value="Démonstration" style="ellipse;whiteSpace=wrap;html=1;" parent="1" vertex="1">
          <mxGeometry x="320" y="570" width="120" height="60" as="geometry" />
        </mxCell>
        <mxCell id="mdohe5RoHkzdU5tUn_Dr-23" style="edgeStyle=orthogonalEdgeStyle;rounded=0;orthogonalLoop=1;jettySize=auto;html=1;exitX=0.5;exitY=0;exitDx=0;exitDy=0;entryX=0.5;entryY=1;entryDx=0;entryDy=0;" parent="1" source="mdohe5RoHkzdU5tUn_Dr-7" target="mdohe5RoHkzdU5tUn_Dr-6" edge="1">
          <mxGeometry relative="1" as="geometry" />
        </mxCell>
        <mxCell id="mdohe5RoHkzdU5tUn_Dr-7" value="RISQUES : Développer des compétences inutiles" style="rounded=0;whiteSpace=wrap;html=1;" parent="1" vertex="1">
          <mxGeometry x="265" y="680" width="230" height="60" as="geometry" />
        </mxCell>
        <mxCell id="mdohe5RoHkzdU5tUn_Dr-26" value="Se former à la gestion de projet" style="text;html=1;align=center;verticalAlign=middle;resizable=0;points=[];autosize=1;strokeColor=none;fillColor=none;" parent="1" vertex="1">
          <mxGeometry x="115" y="568" width="190" height="30" as="geometry" />
        </mxCell>
        <mxCell id="mdohe5RoHkzdU5tUn_Dr-27" value="Divertir, Intéresser , Stimuler" style="text;html=1;align=center;verticalAlign=middle;resizable=0;points=[];autosize=1;strokeColor=none;fillColor=none;" parent="1" vertex="1">
          <mxGeometry x="450" y="570" width="170" height="30" as="geometry" />
        </mxCell>
        <mxCell id="mdohe5RoHkzdU5tUn_Dr-28" value="Pourquoi?" style="text;html=1;align=center;verticalAlign=middle;resizable=0;points=[];autosize=1;strokeColor=none;fillColor=none;" parent="1" vertex="1">
          <mxGeometry x="100" y="608" width="80" height="30" as="geometry" />
        </mxCell>
        <mxCell id="mdohe5RoHkzdU5tUn_Dr-29" value="Pour quoi?" style="text;html=1;align=center;verticalAlign=middle;resizable=0;points=[];autosize=1;strokeColor=none;fillColor=none;" parent="1" vertex="1">
          <mxGeometry x="560" y="608" width="80" height="30" as="geometry" />
        </mxCell>
        <mxCell id="mdohe5RoHkzdU5tUn_Dr-38" style="edgeStyle=orthogonalEdgeStyle;rounded=0;orthogonalLoop=1;jettySize=auto;html=1;exitX=1;exitY=0.5;exitDx=0;exitDy=0;entryX=0;entryY=0.5;entryDx=0;entryDy=0;curved=1;fillColor=#d5e8d4;strokeColor=#82b366;" parent="1" source="mdohe5RoHkzdU5tUn_Dr-30" target="mdohe5RoHkzdU5tUn_Dr-34" edge="1">
          <mxGeometry relative="1" as="geometry" />
        </mxCell>
        <mxCell id="_yf6G-bzq4-rHUXp4GzS-12" value="&lt;font style=&quot;color: rgb(0, 153, 0);&quot;&gt;FCS1&lt;/font&gt;" style="edgeLabel;html=1;align=center;verticalAlign=middle;resizable=0;points=[];fontSize=12;" vertex="1" connectable="0" parent="mdohe5RoHkzdU5tUn_Dr-38">
          <mxGeometry x="0.0063" y="3" relative="1" as="geometry">
            <mxPoint as="offset" />
          </mxGeometry>
        </mxCell>
        <mxCell id="mdohe5RoHkzdU5tUn_Dr-41" style="edgeStyle=orthogonalEdgeStyle;rounded=0;orthogonalLoop=1;jettySize=auto;html=1;exitX=0;exitY=0.5;exitDx=0;exitDy=0;entryX=1;entryY=0.5;entryDx=0;entryDy=0;curved=1;fillColor=#d5e8d4;strokeColor=#82b366;" parent="1" source="mdohe5RoHkzdU5tUn_Dr-30" target="mdohe5RoHkzdU5tUn_Dr-32" edge="1">
          <mxGeometry relative="1" as="geometry" />
        </mxCell>
        <mxCell id="_yf6G-bzq4-rHUXp4GzS-11" value="&lt;font style=&quot;color: rgb(0, 153, 0);&quot;&gt;FSC4&lt;/font&gt;" style="edgeLabel;html=1;align=center;verticalAlign=middle;resizable=0;points=[];fontSize=12;" vertex="1" connectable="0" parent="mdohe5RoHkzdU5tUn_Dr-41">
          <mxGeometry x="-0.2319" y="9" relative="1" as="geometry">
            <mxPoint as="offset" />
          </mxGeometry>
        </mxCell>
        <mxCell id="mdohe5RoHkzdU5tUn_Dr-46" style="edgeStyle=orthogonalEdgeStyle;rounded=0;orthogonalLoop=1;jettySize=auto;html=1;exitX=0.5;exitY=1;exitDx=0;exitDy=0;fillColor=#d5e8d4;strokeColor=#82b366;curved=1;" parent="1" source="mdohe5RoHkzdU5tUn_Dr-30" target="mdohe5RoHkzdU5tUn_Dr-35" edge="1">
          <mxGeometry relative="1" as="geometry" />
        </mxCell>
        <mxCell id="_yf6G-bzq4-rHUXp4GzS-10" value="&lt;font style=&quot;color: rgb(0, 153, 0);&quot;&gt;FCS2&lt;/font&gt;" style="edgeLabel;html=1;align=center;verticalAlign=middle;resizable=0;points=[];fontSize=12;" vertex="1" connectable="0" parent="mdohe5RoHkzdU5tUn_Dr-46">
          <mxGeometry x="0.0825" y="-6" relative="1" as="geometry">
            <mxPoint as="offset" />
          </mxGeometry>
        </mxCell>
        <mxCell id="mdohe5RoHkzdU5tUn_Dr-47" style="edgeStyle=orthogonalEdgeStyle;rounded=0;orthogonalLoop=1;jettySize=auto;html=1;exitX=1;exitY=0.5;exitDx=0;exitDy=0;entryX=0;entryY=1;entryDx=0;entryDy=0;curved=1;fillColor=#d5e8d4;strokeColor=#82b366;" parent="1" source="mdohe5RoHkzdU5tUn_Dr-30" target="mdohe5RoHkzdU5tUn_Dr-36" edge="1">
          <mxGeometry relative="1" as="geometry">
            <Array as="points">
              <mxPoint x="1210" y="415" />
              <mxPoint x="1210" y="378" />
            </Array>
          </mxGeometry>
        </mxCell>
        <mxCell id="_yf6G-bzq4-rHUXp4GzS-9" value="&lt;font style=&quot;color: rgb(0, 153, 0);&quot;&gt;FCS3&lt;/font&gt;" style="edgeLabel;html=1;align=center;verticalAlign=middle;resizable=0;points=[];fontSize=12;" vertex="1" connectable="0" parent="mdohe5RoHkzdU5tUn_Dr-47">
          <mxGeometry x="-0.1056" y="3" relative="1" as="geometry">
            <mxPoint as="offset" />
          </mxGeometry>
        </mxCell>
        <mxCell id="mdohe5RoHkzdU5tUn_Dr-30" value="Robot Tripot" style="ellipse;whiteSpace=wrap;html=1;" parent="1" vertex="1">
          <mxGeometry x="985" y="370" width="120" height="80" as="geometry" />
        </mxCell>
        <mxCell id="mdohe5RoHkzdU5tUn_Dr-49" style="edgeStyle=orthogonalEdgeStyle;rounded=0;orthogonalLoop=1;jettySize=auto;html=1;exitX=0.5;exitY=1;exitDx=0;exitDy=0;entryX=1;entryY=0.5;entryDx=0;entryDy=0;fillColor=#f8cecc;strokeColor=#b85450;curved=1;" parent="1" edge="1">
          <mxGeometry relative="1" as="geometry">
            <mxPoint x="1045" y="199.93" as="sourcePoint" />
            <mxPoint x="810" y="319.93" as="targetPoint" />
            <Array as="points">
              <mxPoint x="1045" y="389.93" />
              <mxPoint x="870" y="389.93" />
              <mxPoint x="870" y="319.93" />
            </Array>
          </mxGeometry>
        </mxCell>
        <mxCell id="_yf6G-bzq4-rHUXp4GzS-14" value="&lt;font style=&quot;color: rgb(204, 0, 0);&quot;&gt;FSP1&lt;/font&gt;" style="edgeLabel;html=1;align=center;verticalAlign=middle;resizable=0;points=[];fontSize=12;" vertex="1" connectable="0" parent="mdohe5RoHkzdU5tUn_Dr-49">
          <mxGeometry x="0.235" y="-1" relative="1" as="geometry">
            <mxPoint as="offset" />
          </mxGeometry>
        </mxCell>
        <mxCell id="mdohe5RoHkzdU5tUn_Dr-53" style="edgeStyle=orthogonalEdgeStyle;rounded=0;orthogonalLoop=1;jettySize=auto;html=1;exitX=0.5;exitY=1;exitDx=0;exitDy=0;entryX=1;entryY=0.5;entryDx=0;entryDy=0;curved=1;fillColor=#e1d5e7;strokeColor=#9673a6;" parent="1" edge="1">
          <mxGeometry relative="1" as="geometry">
            <mxPoint x="1045" y="210" as="sourcePoint" />
            <mxPoint x="810" y="330" as="targetPoint" />
            <Array as="points">
              <mxPoint x="990" y="210" />
              <mxPoint x="990" y="530" />
              <mxPoint x="810" y="530" />
            </Array>
          </mxGeometry>
        </mxCell>
        <mxCell id="_yf6G-bzq4-rHUXp4GzS-15" value="&lt;font style=&quot;color: rgb(76, 0, 153);&quot;&gt;FSP3&lt;/font&gt;" style="edgeLabel;html=1;align=center;verticalAlign=middle;resizable=0;points=[];fontSize=12;" vertex="1" connectable="0" parent="mdohe5RoHkzdU5tUn_Dr-53">
          <mxGeometry x="-0.6327" y="-4" relative="1" as="geometry">
            <mxPoint as="offset" />
          </mxGeometry>
        </mxCell>
        <mxCell id="mdohe5RoHkzdU5tUn_Dr-31" value="Joueur humain" style="ellipse;whiteSpace=wrap;html=1;" parent="1" vertex="1">
          <mxGeometry x="960" y="120" width="170" height="80" as="geometry" />
        </mxCell>
        <mxCell id="mdohe5RoHkzdU5tUn_Dr-32" value="Spectateur" style="ellipse;whiteSpace=wrap;html=1;" parent="1" vertex="1">
          <mxGeometry x="680" y="470" width="160" height="70" as="geometry" />
        </mxCell>
        <mxCell id="mdohe5RoHkzdU5tUn_Dr-33" value="Jeu de dames" style="ellipse;whiteSpace=wrap;html=1;" parent="1" vertex="1">
          <mxGeometry x="660" y="280" width="150" height="80" as="geometry" />
        </mxCell>
        <mxCell id="mdohe5RoHkzdU5tUn_Dr-34" value="Intérieur vitré (salle de classe)" style="ellipse;whiteSpace=wrap;html=1;" parent="1" vertex="1">
          <mxGeometry x="1160" y="528" width="180" height="80" as="geometry" />
        </mxCell>
        <mxCell id="mdohe5RoHkzdU5tUn_Dr-35" value="Normes robot" style="ellipse;whiteSpace=wrap;html=1;" parent="1" vertex="1">
          <mxGeometry x="930" y="585" width="189" height="80" as="geometry" />
        </mxCell>
        <mxCell id="mdohe5RoHkzdU5tUn_Dr-36" value="éléctrique" style="ellipse;whiteSpace=wrap;html=1;" parent="1" vertex="1">
          <mxGeometry x="1230" y="310" width="180" height="80" as="geometry" />
        </mxCell>
        <mxCell id="mdohe5RoHkzdU5tUn_Dr-48" style="edgeStyle=orthogonalEdgeStyle;rounded=0;orthogonalLoop=1;jettySize=auto;html=1;exitX=0.5;exitY=1;exitDx=0;exitDy=0;entryX=0;entryY=0;entryDx=0;entryDy=0;fillColor=#f8cecc;strokeColor=#b85450;curved=1;" parent="1" source="mdohe5RoHkzdU5tUn_Dr-31" target="mdohe5RoHkzdU5tUn_Dr-36" edge="1">
          <mxGeometry relative="1" as="geometry">
            <Array as="points">
              <mxPoint x="1045" y="380" />
              <mxPoint x="1140" y="380" />
              <mxPoint x="1140" y="300" />
              <mxPoint x="1257" y="300" />
            </Array>
          </mxGeometry>
        </mxCell>
        <mxCell id="_yf6G-bzq4-rHUXp4GzS-13" value="&lt;font style=&quot;color: rgb(204, 0, 0);&quot;&gt;FSP2&lt;/font&gt;" style="edgeLabel;html=1;align=center;verticalAlign=middle;resizable=0;points=[];fontSize=12;" vertex="1" connectable="0" parent="mdohe5RoHkzdU5tUn_Dr-48">
          <mxGeometry x="0.214" y="3" relative="1" as="geometry">
            <mxPoint as="offset" />
          </mxGeometry>
        </mxCell>
        <mxCell id="mdohe5RoHkzdU5tUn_Dr-71" style="edgeStyle=orthogonalEdgeStyle;rounded=0;orthogonalLoop=1;jettySize=auto;html=1;exitX=1;exitY=0.5;exitDx=0;exitDy=0;" parent="1" source="mdohe5RoHkzdU5tUn_Dr-54" target="mdohe5RoHkzdU5tUn_Dr-63" edge="1">
          <mxGeometry relative="1" as="geometry" />
        </mxCell>
        <mxCell id="mdohe5RoHkzdU5tUn_Dr-72" style="edgeStyle=orthogonalEdgeStyle;rounded=0;orthogonalLoop=1;jettySize=auto;html=1;exitX=1;exitY=0.5;exitDx=0;exitDy=0;entryX=0;entryY=0.5;entryDx=0;entryDy=0;" parent="1" source="mdohe5RoHkzdU5tUn_Dr-54" target="mdohe5RoHkzdU5tUn_Dr-62" edge="1">
          <mxGeometry relative="1" as="geometry">
            <Array as="points">
              <mxPoint x="450" y="1420" />
              <mxPoint x="450" y="1340" />
            </Array>
          </mxGeometry>
        </mxCell>
        <mxCell id="_yf6G-bzq4-rHUXp4GzS-18" value="ET" style="edgeLabel;html=1;align=center;verticalAlign=middle;resizable=0;points=[];fontSize=12;" vertex="1" connectable="0" parent="mdohe5RoHkzdU5tUn_Dr-72">
          <mxGeometry x="0.4002" relative="1" as="geometry">
            <mxPoint as="offset" />
          </mxGeometry>
        </mxCell>
        <mxCell id="mdohe5RoHkzdU5tUn_Dr-73" style="edgeStyle=orthogonalEdgeStyle;rounded=0;orthogonalLoop=1;jettySize=auto;html=1;exitX=1;exitY=0.5;exitDx=0;exitDy=0;entryX=0;entryY=0.5;entryDx=0;entryDy=0;" parent="1" source="mdohe5RoHkzdU5tUn_Dr-54" target="mdohe5RoHkzdU5tUn_Dr-64" edge="1">
          <mxGeometry relative="1" as="geometry">
            <Array as="points">
              <mxPoint x="450" y="1420" />
              <mxPoint x="450" y="1580" />
            </Array>
          </mxGeometry>
        </mxCell>
        <mxCell id="_yf6G-bzq4-rHUXp4GzS-19" value="ET" style="edgeLabel;html=1;align=center;verticalAlign=middle;resizable=0;points=[];fontSize=12;" vertex="1" connectable="0" parent="mdohe5RoHkzdU5tUn_Dr-73">
          <mxGeometry x="0.1317" y="1" relative="1" as="geometry">
            <mxPoint as="offset" />
          </mxGeometry>
        </mxCell>
        <mxCell id="mdohe5RoHkzdU5tUn_Dr-54" value="FSP1.1" style="rounded=0;whiteSpace=wrap;html=1;" parent="1" vertex="1">
          <mxGeometry x="59" y="1390" width="120" height="60" as="geometry" />
        </mxCell>
        <mxCell id="mdohe5RoHkzdU5tUn_Dr-75" style="edgeStyle=orthogonalEdgeStyle;rounded=0;orthogonalLoop=1;jettySize=auto;html=1;exitX=1;exitY=0.5;exitDx=0;exitDy=0;entryX=0;entryY=0.5;entryDx=0;entryDy=0;" parent="1" source="mdohe5RoHkzdU5tUn_Dr-55" target="mdohe5RoHkzdU5tUn_Dr-74" edge="1">
          <mxGeometry relative="1" as="geometry" />
        </mxCell>
        <mxCell id="mdohe5RoHkzdU5tUn_Dr-55" value="FSP2" style="rounded=0;whiteSpace=wrap;html=1;" parent="1" vertex="1">
          <mxGeometry x="59" y="1500" width="120" height="60" as="geometry" />
        </mxCell>
        <mxCell id="mdohe5RoHkzdU5tUn_Dr-78" style="edgeStyle=orthogonalEdgeStyle;rounded=0;orthogonalLoop=1;jettySize=auto;html=1;exitX=1;exitY=0.5;exitDx=0;exitDy=0;" parent="1" source="mdohe5RoHkzdU5tUn_Dr-56" target="mdohe5RoHkzdU5tUn_Dr-76" edge="1">
          <mxGeometry relative="1" as="geometry" />
        </mxCell>
        <mxCell id="_yf6G-bzq4-rHUXp4GzS-20" value="ET" style="edgeLabel;html=1;align=center;verticalAlign=middle;resizable=0;points=[];fontSize=12;" vertex="1" connectable="0" parent="mdohe5RoHkzdU5tUn_Dr-78">
          <mxGeometry x="-0.0503" y="-5" relative="1" as="geometry">
            <mxPoint as="offset" />
          </mxGeometry>
        </mxCell>
        <mxCell id="mdohe5RoHkzdU5tUn_Dr-89" style="edgeStyle=orthogonalEdgeStyle;rounded=0;orthogonalLoop=1;jettySize=auto;html=1;exitX=1;exitY=0.5;exitDx=0;exitDy=0;entryX=0;entryY=0.5;entryDx=0;entryDy=0;" parent="1" source="mdohe5RoHkzdU5tUn_Dr-56" target="mdohe5RoHkzdU5tUn_Dr-88" edge="1">
          <mxGeometry relative="1" as="geometry" />
        </mxCell>
        <mxCell id="_yf6G-bzq4-rHUXp4GzS-21" value="ET" style="edgeLabel;html=1;align=center;verticalAlign=middle;resizable=0;points=[];fontSize=12;" vertex="1" connectable="0" parent="mdohe5RoHkzdU5tUn_Dr-89">
          <mxGeometry x="0.0523" y="-9" relative="1" as="geometry">
            <mxPoint as="offset" />
          </mxGeometry>
        </mxCell>
        <mxCell id="_yf6G-bzq4-rHUXp4GzS-8" style="edgeStyle=orthogonalEdgeStyle;rounded=0;orthogonalLoop=1;jettySize=auto;html=1;exitX=1;exitY=0.5;exitDx=0;exitDy=0;entryX=0.5;entryY=1;entryDx=0;entryDy=0;fontSize=12;startSize=8;endSize=8;" edge="1" parent="1" source="mdohe5RoHkzdU5tUn_Dr-56" target="mdohe5RoHkzdU5tUn_Dr-64">
          <mxGeometry relative="1" as="geometry" />
        </mxCell>
        <mxCell id="mdohe5RoHkzdU5tUn_Dr-56" value="FSP3" style="rounded=0;whiteSpace=wrap;html=1;" parent="1" vertex="1">
          <mxGeometry x="59" y="1620" width="120" height="60" as="geometry" />
        </mxCell>
        <mxCell id="mdohe5RoHkzdU5tUn_Dr-79" style="edgeStyle=orthogonalEdgeStyle;rounded=0;orthogonalLoop=1;jettySize=auto;html=1;exitX=1;exitY=0.5;exitDx=0;exitDy=0;entryX=0;entryY=0.5;entryDx=0;entryDy=0;" parent="1" source="mdohe5RoHkzdU5tUn_Dr-57" target="mdohe5RoHkzdU5tUn_Dr-77" edge="1">
          <mxGeometry relative="1" as="geometry" />
        </mxCell>
        <mxCell id="_yf6G-bzq4-rHUXp4GzS-23" style="edgeStyle=orthogonalEdgeStyle;rounded=0;orthogonalLoop=1;jettySize=auto;html=1;exitX=1;exitY=0.5;exitDx=0;exitDy=0;entryX=0;entryY=0.5;entryDx=0;entryDy=0;fontSize=12;startSize=8;endSize=8;" edge="1" parent="1" source="mdohe5RoHkzdU5tUn_Dr-57" target="_yf6G-bzq4-rHUXp4GzS-22">
          <mxGeometry relative="1" as="geometry" />
        </mxCell>
        <mxCell id="_yf6G-bzq4-rHUXp4GzS-24" value="ET/ OU" style="edgeLabel;html=1;align=center;verticalAlign=middle;resizable=0;points=[];fontSize=12;" vertex="1" connectable="0" parent="_yf6G-bzq4-rHUXp4GzS-23">
          <mxGeometry x="-0.0922" y="4" relative="1" as="geometry">
            <mxPoint as="offset" />
          </mxGeometry>
        </mxCell>
        <mxCell id="mdohe5RoHkzdU5tUn_Dr-57" value="FSC1" style="rounded=0;whiteSpace=wrap;html=1;" parent="1" vertex="1">
          <mxGeometry x="59" y="1740" width="120" height="60" as="geometry" />
        </mxCell>
        <mxCell id="mdohe5RoHkzdU5tUn_Dr-82" style="edgeStyle=orthogonalEdgeStyle;rounded=0;orthogonalLoop=1;jettySize=auto;html=1;exitX=1;exitY=0.5;exitDx=0;exitDy=0;entryX=0;entryY=0.5;entryDx=0;entryDy=0;" parent="1" source="mdohe5RoHkzdU5tUn_Dr-58" target="mdohe5RoHkzdU5tUn_Dr-80" edge="1">
          <mxGeometry relative="1" as="geometry" />
        </mxCell>
        <mxCell id="_yf6G-bzq4-rHUXp4GzS-28" value="ET/OU" style="edgeLabel;html=1;align=center;verticalAlign=middle;resizable=0;points=[];fontSize=12;" vertex="1" connectable="0" parent="mdohe5RoHkzdU5tUn_Dr-82">
          <mxGeometry x="-0.0211" relative="1" as="geometry">
            <mxPoint as="offset" />
          </mxGeometry>
        </mxCell>
        <mxCell id="mdohe5RoHkzdU5tUn_Dr-83" style="edgeStyle=orthogonalEdgeStyle;rounded=0;orthogonalLoop=1;jettySize=auto;html=1;exitX=1;exitY=0.5;exitDx=0;exitDy=0;entryX=0;entryY=0.5;entryDx=0;entryDy=0;" parent="1" source="mdohe5RoHkzdU5tUn_Dr-58" target="mdohe5RoHkzdU5tUn_Dr-81" edge="1">
          <mxGeometry relative="1" as="geometry" />
        </mxCell>
        <mxCell id="_yf6G-bzq4-rHUXp4GzS-7" style="edgeStyle=orthogonalEdgeStyle;rounded=0;orthogonalLoop=1;jettySize=auto;html=1;exitX=1;exitY=0.5;exitDx=0;exitDy=0;entryX=0.5;entryY=1;entryDx=0;entryDy=0;fontSize=12;startSize=8;endSize=8;" edge="1" parent="1" source="mdohe5RoHkzdU5tUn_Dr-58" target="mdohe5RoHkzdU5tUn_Dr-64">
          <mxGeometry relative="1" as="geometry">
            <Array as="points">
              <mxPoint x="179" y="1970" />
              <mxPoint x="690" y="1970" />
            </Array>
          </mxGeometry>
        </mxCell>
        <mxCell id="_yf6G-bzq4-rHUXp4GzS-27" value="ET" style="edgeLabel;html=1;align=center;verticalAlign=middle;resizable=0;points=[];fontSize=12;" vertex="1" connectable="0" parent="_yf6G-bzq4-rHUXp4GzS-7">
          <mxGeometry x="-0.9114" relative="1" as="geometry">
            <mxPoint as="offset" />
          </mxGeometry>
        </mxCell>
        <mxCell id="mdohe5RoHkzdU5tUn_Dr-58" value="FSC2" style="rounded=0;whiteSpace=wrap;html=1;" parent="1" vertex="1">
          <mxGeometry x="40" y="1890" width="120" height="60" as="geometry" />
        </mxCell>
        <mxCell id="mdohe5RoHkzdU5tUn_Dr-86" style="edgeStyle=orthogonalEdgeStyle;rounded=0;orthogonalLoop=1;jettySize=auto;html=1;exitX=1;exitY=0.5;exitDx=0;exitDy=0;entryX=0;entryY=0.75;entryDx=0;entryDy=0;" parent="1" source="mdohe5RoHkzdU5tUn_Dr-59" target="mdohe5RoHkzdU5tUn_Dr-84" edge="1">
          <mxGeometry relative="1" as="geometry" />
        </mxCell>
        <mxCell id="mdohe5RoHkzdU5tUn_Dr-59" value="FSC3" style="rounded=0;whiteSpace=wrap;html=1;" parent="1" vertex="1">
          <mxGeometry x="50" y="2020" width="120" height="60" as="geometry" />
        </mxCell>
        <mxCell id="_yf6G-bzq4-rHUXp4GzS-5" style="edgeStyle=orthogonalEdgeStyle;rounded=0;orthogonalLoop=1;jettySize=auto;html=1;exitX=1;exitY=0.5;exitDx=0;exitDy=0;entryX=0.5;entryY=1;entryDx=0;entryDy=0;fontSize=12;startSize=8;endSize=8;" edge="1" parent="1" source="mdohe5RoHkzdU5tUn_Dr-60" target="mdohe5RoHkzdU5tUn_Dr-64">
          <mxGeometry relative="1" as="geometry" />
        </mxCell>
        <mxCell id="mdohe5RoHkzdU5tUn_Dr-60" value="FSC4" style="rounded=0;whiteSpace=wrap;html=1;" parent="1" vertex="1">
          <mxGeometry x="60" y="2110" width="120" height="60" as="geometry" />
        </mxCell>
        <mxCell id="mdohe5RoHkzdU5tUn_Dr-62" value="Bras Tripot" style="rounded=0;whiteSpace=wrap;html=1;" parent="1" vertex="1">
          <mxGeometry x="530" y="1310" width="120" height="60" as="geometry" />
        </mxCell>
        <mxCell id="mdohe5RoHkzdU5tUn_Dr-63" value="Système de Vision" style="rounded=0;whiteSpace=wrap;html=1;" parent="1" vertex="1">
          <mxGeometry x="530" y="1390" width="120" height="60" as="geometry" />
        </mxCell>
        <mxCell id="mdohe5RoHkzdU5tUn_Dr-67" style="edgeStyle=orthogonalEdgeStyle;rounded=0;orthogonalLoop=1;jettySize=auto;html=1;exitX=1;exitY=0.5;exitDx=0;exitDy=0;entryX=0;entryY=0.5;entryDx=0;entryDy=0;" parent="1" source="mdohe5RoHkzdU5tUn_Dr-64" target="mdohe5RoHkzdU5tUn_Dr-65" edge="1">
          <mxGeometry relative="1" as="geometry" />
        </mxCell>
        <mxCell id="_yf6G-bzq4-rHUXp4GzS-16" value="ET" style="edgeLabel;html=1;align=center;verticalAlign=middle;resizable=0;points=[];fontSize=12;" vertex="1" connectable="0" parent="mdohe5RoHkzdU5tUn_Dr-67">
          <mxGeometry x="0.0117" y="1" relative="1" as="geometry">
            <mxPoint as="offset" />
          </mxGeometry>
        </mxCell>
        <mxCell id="mdohe5RoHkzdU5tUn_Dr-68" style="edgeStyle=orthogonalEdgeStyle;rounded=0;orthogonalLoop=1;jettySize=auto;html=1;exitX=1;exitY=0.5;exitDx=0;exitDy=0;entryX=0;entryY=0.5;entryDx=0;entryDy=0;" parent="1" source="mdohe5RoHkzdU5tUn_Dr-64" target="mdohe5RoHkzdU5tUn_Dr-66" edge="1">
          <mxGeometry relative="1" as="geometry" />
        </mxCell>
        <mxCell id="mdohe5RoHkzdU5tUn_Dr-70" style="edgeStyle=orthogonalEdgeStyle;rounded=0;orthogonalLoop=1;jettySize=auto;html=1;exitX=1;exitY=0.5;exitDx=0;exitDy=0;entryX=0;entryY=0.5;entryDx=0;entryDy=0;" parent="1" source="mdohe5RoHkzdU5tUn_Dr-64" target="mdohe5RoHkzdU5tUn_Dr-69" edge="1">
          <mxGeometry relative="1" as="geometry" />
        </mxCell>
        <mxCell id="_yf6G-bzq4-rHUXp4GzS-17" value="ET" style="edgeLabel;html=1;align=center;verticalAlign=middle;resizable=0;points=[];fontSize=12;" vertex="1" connectable="0" parent="mdohe5RoHkzdU5tUn_Dr-70">
          <mxGeometry x="0.1281" y="4" relative="1" as="geometry">
            <mxPoint as="offset" />
          </mxGeometry>
        </mxCell>
        <mxCell id="mdohe5RoHkzdU5tUn_Dr-64" value="sytème de contôle&lt;div&gt;(en C)&lt;/div&gt;" style="rounded=0;whiteSpace=wrap;html=1;" parent="1" vertex="1">
          <mxGeometry x="630" y="1550" width="120" height="60" as="geometry" />
        </mxCell>
        <mxCell id="mdohe5RoHkzdU5tUn_Dr-65" value="Calibration" style="rounded=0;whiteSpace=wrap;html=1;" parent="1" vertex="1">
          <mxGeometry x="880" y="1475" width="120" height="60" as="geometry" />
        </mxCell>
        <mxCell id="mdohe5RoHkzdU5tUn_Dr-66" value="Traitement d&#39;image" style="rounded=0;whiteSpace=wrap;html=1;" parent="1" vertex="1">
          <mxGeometry x="880" y="1545" width="120" height="60" as="geometry" />
        </mxCell>
        <mxCell id="mdohe5RoHkzdU5tUn_Dr-69" value="Com robot" style="rounded=0;whiteSpace=wrap;html=1;" parent="1" vertex="1">
          <mxGeometry x="880" y="1625" width="120" height="60" as="geometry" />
        </mxCell>
        <mxCell id="mdohe5RoHkzdU5tUn_Dr-74" value="Prise réseau + alimentation&amp;nbsp;" style="rounded=0;whiteSpace=wrap;html=1;" parent="1" vertex="1">
          <mxGeometry x="270" y="1500" width="120" height="60" as="geometry" />
        </mxCell>
        <mxCell id="mdohe5RoHkzdU5tUn_Dr-76" value="Application (en C)" style="rounded=0;whiteSpace=wrap;html=1;" parent="1" vertex="1">
          <mxGeometry x="269" y="1580" width="120" height="60" as="geometry" />
        </mxCell>
        <mxCell id="mdohe5RoHkzdU5tUn_Dr-77" value="éclairage externe" style="rounded=0;whiteSpace=wrap;html=1;" parent="1" vertex="1">
          <mxGeometry x="500" y="1700" width="120" height="60" as="geometry" />
        </mxCell>
        <mxCell id="mdohe5RoHkzdU5tUn_Dr-80" value="Barrière immartielle de sécurité" style="rounded=0;whiteSpace=wrap;html=1;" parent="1" vertex="1">
          <mxGeometry x="200" y="1810" width="120" height="60" as="geometry" />
        </mxCell>
        <mxCell id="mdohe5RoHkzdU5tUn_Dr-81" value="Arrêt d&#39;urgence" style="rounded=0;whiteSpace=wrap;html=1;" parent="1" vertex="1">
          <mxGeometry x="249" y="1890" width="120" height="60" as="geometry" />
        </mxCell>
        <mxCell id="mdohe5RoHkzdU5tUn_Dr-84" value="Choix de matériel respectant les normes" style="rounded=0;whiteSpace=wrap;html=1;" parent="1" vertex="1">
          <mxGeometry x="320" y="2010" width="120" height="60" as="geometry" />
        </mxCell>
        <mxCell id="mdohe5RoHkzdU5tUn_Dr-88" value="Haut parleur externe" style="rounded=0;whiteSpace=wrap;html=1;" parent="1" vertex="1">
          <mxGeometry x="269" y="1660" width="120" height="60" as="geometry" />
        </mxCell>
        <UserObject label="&lt;table xmlns=&quot;http://www.w3.org/1999/xhtml&quot; cellspacing=&quot;0&quot; cellpadding=&quot;0&quot; dir=&quot;ltr&quot; border=&quot;1&quot; style=&quot;table-layout:fixed;font-size:10pt;font-family:Arial;width:0px;border-collapse:collapse;border:none&quot; data-sheets-root=&quot;1&quot; data-sheets-baot=&quot;1&quot;&gt;&lt;colgroup&gt;&lt;col width=&quot;100&quot;&gt;&lt;col width=&quot;620&quot;&gt;&lt;col width=&quot;414&quot;&gt;&lt;col width=&quot;234&quot;&gt;&lt;col width=&quot;183&quot;&gt;&lt;col width=&quot;100&quot;&gt;&lt;/colgroup&gt;&lt;tbody&gt;&lt;tr style=&quot;height:21px;&quot;&gt;&lt;td style=&quot;border-top:1px solid #000000;border-right:1px solid #000000;border-bottom:1px solid #000000;border-left:1px solid #000000;overflow:hidden;padding:2px 3px 2px 3px;vertical-align:bottom;background-color:#b7b7b7;text-align:center;&quot;&gt;nom&lt;/td&gt;&lt;td style=&quot;border-top:1px solid #000000;border-right:1px solid #000000;border-bottom:1px solid #000000;overflow:hidden;padding:2px 3px 2px 3px;vertical-align:bottom;background-color:#b7b7b7;text-align:center;&quot;&gt;fonction&lt;/td&gt;&lt;td style=&quot;border-top:1px solid #000000;border-right:1px solid #000000;border-bottom:1px solid #000000;overflow:hidden;padding:2px 3px 2px 3px;vertical-align:bottom;background-color:#b7b7b7;text-align:center;&quot;&gt;critère&lt;/td&gt;&lt;td style=&quot;border-top:1px solid #000000;border-right:1px solid #000000;border-bottom:1px solid #000000;overflow:hidden;padding:2px 3px 2px 3px;vertical-align:bottom;background-color:#b7b7b7;text-align:center;&quot;&gt;Niveau&lt;/td&gt;&lt;td style=&quot;border-top:1px solid #000000;border-right:1px solid #000000;border-bottom:1px solid #000000;overflow:hidden;padding:2px 3px 2px 3px;vertical-align:bottom;background-color:#b7b7b7;text-align:center;&quot;&gt;Flexibilité &lt;/td&gt;&lt;td style=&quot;border-top:1px solid #000000;border-right:1px solid #000000;border-bottom:1px solid #000000;overflow:hidden;padding:2px 3px 2px 3px;vertical-align:bottom;background-color:#b7b7b7;text-align:center;&quot;&gt;Classe&lt;/td&gt;&lt;/tr&gt;&lt;tr style=&quot;height:21px;&quot;&gt;&lt;td style=&quot;border-right:1px solid #000000;border-bottom:1px solid #000000;border-left:1px solid #000000;overflow:hidden;padding:2px 3px 2px 3px;vertical-align:bottom;text-align:center;&quot;&gt;FSP1.1&lt;/td&gt;&lt;td style=&quot;border-right:1px solid #000000;border-bottom:1px solid #000000;overflow:hidden;padding:2px 3px 2px 3px;vertical-align:bottom;text-align:center;&quot;&gt; Déplacer des pièces  d&#39;une position de départ donné à une position d&#39;arriver donné sur le jeu de dames&lt;br&gt;&lt;/td&gt;&lt;td style=&quot;border-right:1px solid #000000;border-bottom:1px solid #000000;overflow:hidden;padding:2px 3px 2px 3px;vertical-align:bottom;text-align:center;&quot;&gt;emplacement du centre du pion à l&#39;arrivé&lt;/td&gt;&lt;td style=&quot;border-right:1px solid #000000;border-bottom:1px solid #000000;overflow:hidden;padding:2px 3px 2px 3px;vertical-align:bottom;text-align:center;&quot;&gt;centre de la case de la classe d&#39;arriver&lt;/td&gt;&lt;td style=&quot;border-right:1px solid #000000;border-bottom:1px solid #000000;overflow:hidden;padding:2px 3px 2px 3px;vertical-align:bottom;text-align:center;&quot;&gt;1cm&lt;/td&gt;&lt;td style=&quot;border-right:1px solid #000000;border-bottom:1px solid #000000;overflow:hidden;padding:2px 3px 2px 3px;vertical-align:bottom;text-align:center;&quot;&gt;F0&lt;/td&gt;&lt;/tr&gt;&lt;tr style=&quot;height:21px;&quot;&gt;&lt;td style=&quot;border-right:1px solid #000000;border-bottom:1px solid #000000;border-left:1px solid #000000;overflow:hidden;padding:2px 3px 2px 3px;vertical-align:bottom;text-align:center;&quot;&gt;FSP1.2&lt;/td&gt;&lt;td style=&quot;border-right:1px solid #000000;border-bottom:1px solid #000000;overflow:hidden;padding:2px 3px 2px 3px;vertical-align:bottom;text-align:center;&quot;&gt;être capable de donner  un coup légal dans une position donné&lt;/td&gt;&lt;td style=&quot;border-right:1px solid #000000;border-bottom:1px solid #000000;overflow:hidden;padding:2px 3px 2px 3px;vertical-align:bottom;text-align:center;&quot;&gt;nombre de coup illégaux&lt;/td&gt;&lt;td style=&quot;border-right:1px solid #000000;border-bottom:1px solid #000000;overflow:hidden;padding:2px 3px 2px 3px;vertical-align:bottom;text-align:center;&quot;&gt;0&lt;/td&gt;&lt;td style=&quot;border-right:1px solid #000000;border-bottom:1px solid #000000;overflow:hidden;padding:2px 3px 2px 3px;vertical-align:bottom;text-align:center;&quot;&gt;0&lt;/td&gt;&lt;td style=&quot;border-right:1px solid #000000;border-bottom:1px solid #000000;overflow:hidden;padding:2px 3px 2px 3px;vertical-align:bottom;text-align:center;&quot;&gt;F0&lt;/td&gt;&lt;/tr&gt;&lt;tr style=&quot;height:21px;&quot;&gt;&lt;td style=&quot;border-right:1px solid #000000;border-bottom:1px solid #000000;border-left:1px solid #000000;overflow:hidden;padding:2px 3px 2px 3px;vertical-align:bottom;text-align:center;&quot;&gt;FSP1.3&lt;/td&gt;&lt;td style=&quot;border-right:1px solid #000000;border-bottom:1px solid #000000;overflow:hidden;padding:2px 3px 2px 3px;vertical-align:bottom;text-align:center;&quot;&gt;&lt;br&gt; Gestion de temps &lt;/td&gt;&lt;td style=&quot;border-right:1px solid #000000;border-bottom:1px solid #000000;overflow:hidden;padding:2px 3px 2px 3px;vertical-align:bottom;text-align:center;&quot;&gt;précision de l&#39;horloge de jeu&lt;/td&gt;&lt;td style=&quot;border-right:1px solid #000000;border-bottom:1px solid #000000;overflow:hidden;padding:2px 3px 2px 3px;vertical-align:bottom;text-align:center;&quot;&gt;10 ms&lt;/td&gt;&lt;td style=&quot;border-right:1px solid #000000;border-bottom:1px solid #000000;overflow:hidden;padding:2px 3px 2px 3px;vertical-align:bottom;text-align:center;&quot;&gt;5ms&lt;/td&gt;&lt;td style=&quot;border-right:1px solid #000000;border-bottom:1px solid #000000;overflow:hidden;padding:2px 3px 2px 3px;vertical-align:bottom;text-align:center;&quot;&gt;F3&lt;/td&gt;&lt;/tr&gt;&lt;tr style=&quot;height:21px;&quot;&gt;&lt;td style=&quot;border-right:1px solid #000000;border-bottom:1px solid #000000;border-left:1px solid #000000;overflow:hidden;padding:2px 3px 2px 3px;vertical-align:bottom;text-align:center;&quot;&gt;FSP1.4&lt;/td&gt;&lt;td style=&quot;border-right:1px solid #000000;border-bottom:1px solid #000000;overflow:hidden;padding:2px 3px 2px 3px;vertical-align:bottom;text-align:center;&quot;&gt;Identification Visuelle du plateau&lt;/td&gt;&lt;td style=&quot;border-right:1px solid #000000;border-bottom:1px solid #000000;overflow:hidden;padding:2px 3px 2px 3px;vertical-align:bottom;text-align:center;&quot;&gt;pourcentage d&#39;interprétation incorect&lt;/td&gt;&lt;td style=&quot;border-right:1px solid #000000;border-bottom:1px solid #000000;overflow:hidden;padding:2px 3px 2px 3px;vertical-align:bottom;text-align:center;&quot;&gt;0%&lt;/td&gt;&lt;td style=&quot;border-right:1px solid #000000;border-bottom:1px solid #000000;overflow:hidden;padding:2px 3px 2px 3px;vertical-align:bottom;text-align:center;&quot;&gt;1%&lt;/td&gt;&lt;td style=&quot;border-right:1px solid #000000;border-bottom:1px solid #000000;overflow:hidden;padding:2px 3px 2px 3px;vertical-align:bottom;text-align:center;&quot;&gt;F0&lt;/td&gt;&lt;/tr&gt;&lt;tr style=&quot;height:21px;&quot;&gt;&lt;td style=&quot;border-right:1px solid #000000;border-bottom:1px solid #000000;border-left:1px solid #000000;overflow:hidden;padding:2px 3px 2px 3px;vertical-align:bottom;text-align:center;&quot;&gt;FSP2&lt;/td&gt;&lt;td style=&quot;border-right:1px solid #000000;border-bottom:1px solid #000000;overflow:hidden;padding:2px 3px 2px 3px;vertical-align:bottom;text-align:center;&quot;&gt;Alimenter électriquement &lt;/td&gt;&lt;td style=&quot;border-right:1px solid #000000;border-bottom:1px solid #000000;overflow:hidden;padding:2px 3px 2px 3px;vertical-align:bottom;text-align:center;&quot;&gt;ne pas présenter de problème d&#39;alimentation sur une période donnés&lt;/td&gt;&lt;td style=&quot;border-right:1px solid #000000;border-bottom:1px solid #000000;overflow:hidden;padding:2px 3px 2px 3px;vertical-align:bottom;text-align:center;&quot;&gt;9h&lt;/td&gt;&lt;td style=&quot;border-right:1px solid #000000;border-bottom:1px solid #000000;overflow:hidden;padding:2px 3px 2px 3px;vertical-align:bottom;text-align:center;&quot;&gt;1h&lt;/td&gt;&lt;td style=&quot;border-right:1px solid #000000;border-bottom:1px solid #000000;overflow:hidden;padding:2px 3px 2px 3px;vertical-align:bottom;text-align:center;&quot;&gt;F1&lt;/td&gt;&lt;/tr&gt;&lt;tr style=&quot;height:21px;&quot;&gt;&lt;td style=&quot;border-right:1px solid #000000;border-bottom:1px solid #000000;border-left:1px solid #000000;overflow:hidden;padding:2px 3px 2px 3px;vertical-align:bottom;text-align:center;&quot;&gt;FSP3.1&lt;/td&gt;&lt;td style=&quot;border-right:1px solid #000000;border-bottom:1px solid #000000;overflow:hidden;padding:2px 3px 2px 3px;vertical-align:bottom;text-align:center;&quot;&gt;Interface utilisateur avec :&lt;br&gt; - Choix du mode (1 ou 2 machines)&lt;br&gt;- Choix de la difficulté &lt;br&gt;- Choix de rediffusion &lt;/td&gt;&lt;td style=&quot;border-right:1px solid #000000;border-bottom:1px solid #000000;overflow:hidden;padding:2px 3px 2px 3px;vertical-align:bottom;text-align:center;&quot;&gt;présence de tous les boutons et envoie de trames lié au click&lt;/td&gt;&lt;td style=&quot;border-right:1px solid #000000;border-bottom:1px solid #000000;overflow:hidden;padding:2px 3px 2px 3px;vertical-align:bottom;text-align:center;&quot;&gt;-&lt;/td&gt;&lt;td style=&quot;border-right:1px solid #000000;border-bottom:1px solid #000000;overflow:hidden;padding:2px 3px 2px 3px;vertical-align:bottom;text-align:center;&quot;&gt;0&lt;/td&gt;&lt;td style=&quot;border-right:1px solid #000000;border-bottom:1px solid #000000;overflow:hidden;padding:2px 3px 2px 3px;vertical-align:bottom;text-align:center;&quot;&gt;F0&lt;/td&gt;&lt;/tr&gt;&lt;tr style=&quot;height:21px;&quot;&gt;&lt;td style=&quot;border-right:1px solid #000000;border-bottom:1px solid #000000;border-left:1px solid #000000;overflow:hidden;padding:2px 3px 2px 3px;vertical-align:bottom;text-align:center;&quot;&gt;FSP3.2&lt;/td&gt;&lt;td style=&quot;border-right:1px solid #000000;border-bottom:1px solid #000000;overflow:hidden;padding:2px 3px 2px 3px;vertical-align:bottom;text-align:center;&quot;&gt;gestion de partie : être capable de lancer et finir une partie suivant les règles&lt;/td&gt;&lt;td style=&quot;border-right:1px solid #000000;border-bottom:1px solid #000000;overflow:hidden;padding:2px 3px 2px 3px;vertical-align:bottom;text-align:center;&quot;&gt;Test unique&lt;/td&gt;&lt;td style=&quot;border-right:1px solid #000000;border-bottom:1px solid #000000;overflow:hidden;padding:2px 3px 2px 3px;vertical-align:bottom;text-align:center;&quot;&gt;-&lt;/td&gt;&lt;td style=&quot;border-right:1px solid #000000;border-bottom:1px solid #000000;overflow:hidden;padding:2px 3px 2px 3px;vertical-align:bottom;text-align:center;&quot;&gt;0&lt;/td&gt;&lt;td style=&quot;border-right:1px solid #000000;border-bottom:1px solid #000000;overflow:hidden;padding:2px 3px 2px 3px;vertical-align:bottom;text-align:center;&quot;&gt;F0&lt;/td&gt;&lt;/tr&gt;&lt;tr style=&quot;height:21px;&quot;&gt;&lt;td style=&quot;border-right:1px solid #000000;border-bottom:1px solid #000000;border-left:1px solid #000000;overflow:hidden;padding:2px 3px 2px 3px;vertical-align:bottom;text-align:center;&quot;&gt;FSP3.3&lt;/td&gt;&lt;td style=&quot;border-right:1px solid #000000;border-bottom:1px solid #000000;overflow:hidden;padding:2px 3px 2px 3px;vertical-align:bottom;text-align:center;&quot;&gt;Interface  sonore&lt;/td&gt;&lt;td style=&quot;border-right:1px solid #000000;border-bottom:1px solid #000000;overflow:hidden;padding:2px 3px 2px 3px;vertical-align:bottom;text-align:center;&quot;&gt;nombre d&#39;annonce corrélé / nombre d&#39;annonce décoréllée&lt;/td&gt;&lt;td style=&quot;border-right:1px solid #000000;border-bottom:1px solid #000000;overflow:hidden;padding:2px 3px 2px 3px;vertical-align:bottom;text-align:center;&quot;&gt;3/0&lt;/td&gt;&lt;td style=&quot;border-right:1px solid #000000;border-bottom:1px solid #000000;overflow:hidden;padding:2px 3px 2px 3px;vertical-align:bottom;text-align:center;&quot;&gt;60/0&lt;/td&gt;&lt;td style=&quot;border-right:1px solid #000000;border-bottom:1px solid #000000;overflow:hidden;padding:2px 3px 2px 3px;vertical-align:bottom;text-align:center;&quot;&gt;F2&lt;/td&gt;&lt;/tr&gt;&lt;tr style=&quot;height:21px;&quot;&gt;&lt;td style=&quot;border-right:1px solid #000000;border-bottom:1px solid #000000;border-left:1px solid #000000;overflow:hidden;padding:2px 3px 2px 3px;vertical-align:bottom;text-align:center;&quot;&gt;FSC1&lt;/td&gt;&lt;td style=&quot;border-right:1px solid #000000;border-bottom:1px solid #000000;overflow:hidden;padding:2px 3px 2px 3px;vertical-align:bottom;text-align:center;&quot;&gt;Ne pas être sensible aux écarts de lumière&lt;/td&gt;&lt;td style=&quot;border-right:1px solid #000000;border-bottom:1px solid #000000;overflow:hidden;padding:2px 3px 2px 3px;vertical-align:bottom;text-align:center;&quot;&gt;plage lumineuse de focntionnement&lt;/td&gt;&lt;td style=&quot;border-right:1px solid #000000;border-bottom:1px solid #000000;overflow:hidden;padding:2px 3px 2px 3px;vertical-align:bottom;text-align:center;&quot;&gt;200 - 500 lux&lt;/td&gt;&lt;td style=&quot;border-right:1px solid #000000;border-bottom:1px solid #000000;overflow:hidden;padding:2px 3px 2px 3px;vertical-align:bottom;text-align:center;&quot;&gt;10lux&lt;/td&gt;&lt;td style=&quot;border-right:1px solid #000000;border-bottom:1px solid #000000;overflow:hidden;padding:2px 3px 2px 3px;vertical-align:bottom;text-align:center;&quot;&gt;F0&lt;/td&gt;&lt;/tr&gt;&lt;tr style=&quot;height:21px;&quot;&gt;&lt;td style=&quot;border-right:1px solid #000000;border-bottom:1px solid #000000;border-left:1px solid #000000;overflow:hidden;padding:2px 3px 2px 3px;vertical-align:bottom;text-align:center;&quot;&gt;FSC2&lt;/td&gt;&lt;td style=&quot;border-right:1px solid #000000;border-bottom:1px solid #000000;overflow:hidden;padding:2px 3px 2px 3px;vertical-align:bottom;text-align:center;&quot;&gt;- Ne présenter aucuns dangers&lt;/td&gt;&lt;td style=&quot;border-right:1px solid #000000;border-bottom:1px solid #000000;overflow:hidden;padding:2px 3px 2px 3px;vertical-align:bottom;text-align:center;&quot;&gt;répondre au normes de sécurité robot &lt;/td&gt;&lt;td style=&quot;border-right:1px solid #000000;border-bottom:1px solid #000000;overflow:hidden;padding:2px 3px 2px 3px;vertical-align:bottom;text-align:center;&quot;&gt;(ISO 10218-1)&lt;/td&gt;&lt;td style=&quot;border-right:1px solid #000000;border-bottom:1px solid #000000;overflow:hidden;padding:2px 3px 2px 3px;vertical-align:bottom;text-align:center;&quot;&gt;0&lt;/td&gt;&lt;td style=&quot;border-right:1px solid #000000;border-bottom:1px solid #000000;overflow:hidden;padding:2px 3px 2px 3px;vertical-align:bottom;text-align:center;&quot;&gt;F1&lt;/td&gt;&lt;/tr&gt;&lt;tr style=&quot;height:21px;&quot;&gt;&lt;td style=&quot;border-right:1px solid #000000;border-bottom:1px solid #000000;border-left:1px solid #000000;overflow:hidden;padding:2px 3px 2px 3px;vertical-align:bottom;text-align:center;&quot;&gt;FSC3&lt;/td&gt;&lt;td style=&quot;border-right:1px solid #000000;border-bottom:1px solid #000000;overflow:hidden;padding:2px 3px 2px 3px;vertical-align:bottom;text-align:center;&quot;&gt;Sécurité électrique &lt;/td&gt;&lt;td style=&quot;border-right:1px solid #000000;border-bottom:1px solid #000000;overflow:hidden;padding:2px 3px 2px 3px;vertical-align:bottom;text-align:center;&quot;&gt;ne pas présenter de risque éléctrique&lt;/td&gt;&lt;td style=&quot;border-right:1px solid #000000;border-bottom:1px solid #000000;overflow:hidden;padding:2px 3px 2px 3px;vertical-align:bottom;text-align:center;&quot;&gt;EN 60335&lt;/td&gt;&lt;td style=&quot;border-right:1px solid #000000;border-bottom:1px solid #000000;overflow:hidden;padding:2px 3px 2px 3px;vertical-align:bottom;text-align:center;&quot;&gt;0&lt;/td&gt;&lt;td style=&quot;border-right:1px solid #000000;border-bottom:1px solid #000000;overflow:hidden;padding:2px 3px 2px 3px;vertical-align:bottom;text-align:center;&quot;&gt;F1&lt;/td&gt;&lt;/tr&gt;&lt;tr style=&quot;height:21px;&quot;&gt;&lt;td style=&quot;border-right:1px solid #000000;border-bottom:1px solid #000000;border-left:1px solid #000000;overflow:hidden;padding:2px 3px 2px 3px;vertical-align:bottom;text-align:center;&quot;&gt;FSC4&lt;/td&gt;&lt;td style=&quot;border-right:1px solid #000000;border-bottom:1px solid #000000;overflow:hidden;padding:2px 3px 2px 3px;vertical-align:bottom;text-align:center;&quot;&gt;Possibilité de faire jouer 2 robots de façon autonome&lt;/td&gt;&lt;td style=&quot;border-right:1px solid #000000;border-bottom:1px solid #000000;overflow:hidden;padding:2px 3px 2px 3px;vertical-align:bottom;text-align:center;&quot;&gt;nombre d&#39;intervention humaine sur 30min&lt;/td&gt;&lt;td style=&quot;border-right:1px solid #000000;border-bottom:1px solid #000000;overflow:hidden;padding:2px 3px 2px 3px;vertical-align:bottom;text-align:center;&quot;&gt;1&lt;/td&gt;&lt;td style=&quot;border-right:1px solid #000000;border-bottom:1px solid #000000;overflow:hidden;padding:2px 3px 2px 3px;vertical-align:bottom;text-align:center;&quot;&gt;1&lt;/td&gt;&lt;td style=&quot;border-right:1px solid #000000;border-bottom:1px solid #000000;overflow:hidden;padding:2px 3px 2px 3px;vertical-align:bottom;text-align:center;&quot;&gt;F2&lt;/td&gt;&lt;/tr&gt;&lt;/tbody&gt;&lt;/table&gt;" link="&lt;table xmlns=&quot;http://www.w3.org/1999/xhtml&quot; cellspacing=&quot;0&quot; cellpadding=&quot;0&quot; dir=&quot;ltr&quot; border=&quot;1&quot; style=&quot;table-layout:fixed;font-size:10pt;font-family:Arial;width:0px;border-collapse:collapse;border:none&quot; data-sheets-root=&quot;1&quot; data-sheets-baot=&quot;1&quot;&gt;&lt;colgroup&gt;&lt;col width=&quot;100&quot;&gt;&lt;col width=&quot;620&quot;&gt;&lt;col width=&quot;414&quot;&gt;&lt;col width=&quot;234&quot;&gt;&lt;col width=&quot;183&quot;&gt;&lt;col width=&quot;100&quot;&gt;&lt;/colgroup&gt;&lt;tbody&gt;&lt;tr style=&quot;height:21px;&quot;&gt;&lt;td style=&quot;border-top:1px solid #000000;border-right:1px solid #000000;border-bottom:1px solid #000000;border-left:1px solid #000000;overflow:hidden;padding:2px 3px 2px 3px;vertical-align:bottom;background-color:#b7b7b7;text-align:center;&quot;&gt;nom&lt;/td&gt;&lt;td style=&quot;border-top:1px solid #000000;border-right:1px solid #000000;border-bottom:1px solid #000000;overflow:hidden;padding:2px 3px 2px 3px;vertical-align:bottom;background-color:#b7b7b7;text-align:center;&quot;&gt;fonction&lt;/td&gt;&lt;td style=&quot;border-top:1px solid #000000;border-right:1px solid #000000;border-bottom:1px solid #000000;overflow:hidden;padding:2px 3px 2px 3px;vertical-align:bottom;background-color:#b7b7b7;text-align:center;&quot;&gt;critère&lt;/td&gt;&lt;td style=&quot;border-top:1px solid #000000;border-right:1px solid #000000;border-bottom:1px solid #000000;overflow:hidden;padding:2px 3px 2px 3px;vertical-align:bottom;background-color:#b7b7b7;text-align:center;&quot;&gt;Niveau&lt;/td&gt;&lt;td style=&quot;border-top:1px solid #000000;border-right:1px solid #000000;border-bottom:1px solid #000000;overflow:hidden;padding:2px 3px 2px 3px;vertical-align:bottom;background-color:#b7b7b7;text-align:center;&quot;&gt;Flexibilité &lt;/td&gt;&lt;td style=&quot;border-top:1px solid #000000;border-right:1px solid #000000;border-bottom:1px solid #000000;overflow:hidden;padding:2px 3px 2px 3px;vertical-align:bottom;background-color:#b7b7b7;text-align:center;&quot;&gt;Classe&lt;/td&gt;&lt;/tr&gt;&lt;tr style=&quot;height:21px;&quot;&gt;&lt;td style=&quot;border-right:1px solid #000000;border-bottom:1px solid #000000;border-left:1px solid #000000;overflow:hidden;padding:2px 3px 2px 3px;vertical-align:bottom;text-align:center;&quot;&gt;FSP1.1&lt;/td&gt;&lt;td style=&quot;border-right:1px solid #000000;border-bottom:1px solid #000000;overflow:hidden;padding:2px 3px 2px 3px;vertical-align:bottom;text-align:center;&quot;&gt; Déplacer des pièces  d&#39;une position de départ donné à une position d&#39;arriver donné sur le jeu de dames&lt;br&gt;&lt;/td&gt;&lt;td style=&quot;border-right:1px solid #000000;border-bottom:1px solid #000000;overflow:hidden;padding:2px 3px 2px 3px;vertical-align:bottom;text-align:center;&quot;&gt;emplacement du centre du pion à l&#39;arrivé&lt;/td&gt;&lt;td style=&quot;border-right:1px solid #000000;border-bottom:1px solid #000000;overflow:hidden;padding:2px 3px 2px 3px;vertical-align:bottom;text-align:center;&quot;&gt;centre de la case de la classe d&#39;arriver&lt;/td&gt;&lt;td style=&quot;border-right:1px solid #000000;border-bottom:1px solid #000000;overflow:hidden;padding:2px 3px 2px 3px;vertical-align:bottom;text-align:center;&quot;&gt;1cm&lt;/td&gt;&lt;td style=&quot;border-right:1px solid #000000;border-bottom:1px solid #000000;overflow:hidden;padding:2px 3px 2px 3px;vertical-align:bottom;text-align:center;&quot;&gt;F0&lt;/td&gt;&lt;/tr&gt;&lt;tr style=&quot;height:21px;&quot;&gt;&lt;td style=&quot;border-right:1px solid #000000;border-bottom:1px solid #000000;border-left:1px solid #000000;overflow:hidden;padding:2px 3px 2px 3px;vertical-align:bottom;text-align:center;&quot;&gt;FSP1.2&lt;/td&gt;&lt;td style=&quot;border-right:1px solid #000000;border-bottom:1px solid #000000;overflow:hidden;padding:2px 3px 2px 3px;vertical-align:bottom;text-align:center;&quot;&gt;être capable de donner  un coup légal dans une position donné&lt;/td&gt;&lt;td style=&quot;border-right:1px solid #000000;border-bottom:1px solid #000000;overflow:hidden;padding:2px 3px 2px 3px;vertical-align:bottom;text-align:center;&quot;&gt;nombre de coup illégaux&lt;/td&gt;&lt;td style=&quot;border-right:1px solid #000000;border-bottom:1px solid #000000;overflow:hidden;padding:2px 3px 2px 3px;vertical-align:bottom;text-align:center;&quot;&gt;0&lt;/td&gt;&lt;td style=&quot;border-right:1px solid #000000;border-bottom:1px solid #000000;overflow:hidden;padding:2px 3px 2px 3px;vertical-align:bottom;text-align:center;&quot;&gt;0&lt;/td&gt;&lt;td style=&quot;border-right:1px solid #000000;border-bottom:1px solid #000000;overflow:hidden;padding:2px 3px 2px 3px;vertical-align:bottom;text-align:center;&quot;&gt;F0&lt;/td&gt;&lt;/tr&gt;&lt;tr style=&quot;height:21px;&quot;&gt;&lt;td style=&quot;border-right:1px solid #000000;border-bottom:1px solid #000000;border-left:1px solid #000000;overflow:hidden;padding:2px 3px 2px 3px;vertical-align:bottom;text-align:center;&quot;&gt;FSP1.3&lt;/td&gt;&lt;td style=&quot;border-right:1px solid #000000;border-bottom:1px solid #000000;overflow:hidden;padding:2px 3px 2px 3px;vertical-align:bottom;text-align:center;&quot;&gt;&lt;br&gt; Gestion de temps &lt;/td&gt;&lt;td style=&quot;border-right:1px solid #000000;border-bottom:1px solid #000000;overflow:hidden;padding:2px 3px 2px 3px;vertical-align:bottom;text-align:center;&quot;&gt;précision de l&#39;horloge de jeu&lt;/td&gt;&lt;td style=&quot;border-right:1px solid #000000;border-bottom:1px solid #000000;overflow:hidden;padding:2px 3px 2px 3px;vertical-align:bottom;text-align:center;&quot;&gt;10 ms&lt;/td&gt;&lt;td style=&quot;border-right:1px solid #000000;border-bottom:1px solid #000000;overflow:hidden;padding:2px 3px 2px 3px;vertical-align:bottom;text-align:center;&quot;&gt;5ms&lt;/td&gt;&lt;td style=&quot;border-right:1px solid #000000;border-bottom:1px solid #000000;overflow:hidden;padding:2px 3px 2px 3px;vertical-align:bottom;text-align:center;&quot;&gt;F3&lt;/td&gt;&lt;/tr&gt;&lt;tr style=&quot;height:21px;&quot;&gt;&lt;td style=&quot;border-right:1px solid #000000;border-bottom:1px solid #000000;border-left:1px solid #000000;overflow:hidden;padding:2px 3px 2px 3px;vertical-align:bottom;text-align:center;&quot;&gt;FSP1.4&lt;/td&gt;&lt;td style=&quot;border-right:1px solid #000000;border-bottom:1px solid #000000;overflow:hidden;padding:2px 3px 2px 3px;vertical-align:bottom;text-align:center;&quot;&gt;Identification Visuelle du plateau&lt;/td&gt;&lt;td style=&quot;border-right:1px solid #000000;border-bottom:1px solid #000000;overflow:hidden;padding:2px 3px 2px 3px;vertical-align:bottom;text-align:center;&quot;&gt;pourcentage d&#39;interprétation incorect&lt;/td&gt;&lt;td style=&quot;border-right:1px solid #000000;border-bottom:1px solid #000000;overflow:hidden;padding:2px 3px 2px 3px;vertical-align:bottom;text-align:center;&quot;&gt;0%&lt;/td&gt;&lt;td style=&quot;border-right:1px solid #000000;border-bottom:1px solid #000000;overflow:hidden;padding:2px 3px 2px 3px;vertical-align:bottom;text-align:center;&quot;&gt;1%&lt;/td&gt;&lt;td style=&quot;border-right:1px solid #000000;border-bottom:1px solid #000000;overflow:hidden;padding:2px 3px 2px 3px;vertical-align:bottom;text-align:center;&quot;&gt;F0&lt;/td&gt;&lt;/tr&gt;&lt;tr style=&quot;height:21px;&quot;&gt;&lt;td style=&quot;border-right:1px solid #000000;border-bottom:1px solid #000000;border-left:1px solid #000000;overflow:hidden;padding:2px 3px 2px 3px;vertical-align:bottom;text-align:center;&quot;&gt;FSP2&lt;/td&gt;&lt;td style=&quot;border-right:1px solid #000000;border-bottom:1px solid #000000;overflow:hidden;padding:2px 3px 2px 3px;vertical-align:bottom;text-align:center;&quot;&gt;Alimenter électriquement &lt;/td&gt;&lt;td style=&quot;border-right:1px solid #000000;border-bottom:1px solid #000000;overflow:hidden;padding:2px 3px 2px 3px;vertical-align:bottom;text-align:center;&quot;&gt;ne pas présenter de problème d&#39;alimentation sur une période donnés&lt;/td&gt;&lt;td style=&quot;border-right:1px solid #000000;border-bottom:1px solid #000000;overflow:hidden;padding:2px 3px 2px 3px;vertical-align:bottom;text-align:center;&quot;&gt;9h&lt;/td&gt;&lt;td style=&quot;border-right:1px solid #000000;border-bottom:1px solid #000000;overflow:hidden;padding:2px 3px 2px 3px;vertical-align:bottom;text-align:center;&quot;&gt;1h&lt;/td&gt;&lt;td style=&quot;border-right:1px solid #000000;border-bottom:1px solid #000000;overflow:hidden;padding:2px 3px 2px 3px;vertical-align:bottom;text-align:center;&quot;&gt;F1&lt;/td&gt;&lt;/tr&gt;&lt;tr style=&quot;height:21px;&quot;&gt;&lt;td style=&quot;border-right:1px solid #000000;border-bottom:1px solid #000000;border-left:1px solid #000000;overflow:hidden;padding:2px 3px 2px 3px;vertical-align:bottom;text-align:center;&quot;&gt;FSP3.1&lt;/td&gt;&lt;td style=&quot;border-right:1px solid #000000;border-bottom:1px solid #000000;overflow:hidden;padding:2px 3px 2px 3px;vertical-align:bottom;text-align:center;&quot;&gt;Interface utilisateur avec :&lt;br&gt; - Choix du mode (1 ou 2 machines)&lt;br&gt;- Choix de la difficulté &lt;br&gt;- Choix de rediffusion &lt;/td&gt;&lt;td style=&quot;border-right:1px solid #000000;border-bottom:1px solid #000000;overflow:hidden;padding:2px 3px 2px 3px;vertical-align:bottom;text-align:center;&quot;&gt;présence de tous les boutons et envoie de trames lié au click&lt;/td&gt;&lt;td style=&quot;border-right:1px solid #000000;border-bottom:1px solid #000000;overflow:hidden;padding:2px 3px 2px 3px;vertical-align:bottom;text-align:center;&quot;&gt;-&lt;/td&gt;&lt;td style=&quot;border-right:1px solid #000000;border-bottom:1px solid #000000;overflow:hidden;padding:2px 3px 2px 3px;vertical-align:bottom;text-align:center;&quot;&gt;0&lt;/td&gt;&lt;td style=&quot;border-right:1px solid #000000;border-bottom:1px solid #000000;overflow:hidden;padding:2px 3px 2px 3px;vertical-align:bottom;text-align:center;&quot;&gt;F0&lt;/td&gt;&lt;/tr&gt;&lt;tr style=&quot;height:21px;&quot;&gt;&lt;td style=&quot;border-right:1px solid #000000;border-bottom:1px solid #000000;border-left:1px solid #000000;overflow:hidden;padding:2px 3px 2px 3px;vertical-align:bottom;text-align:center;&quot;&gt;FSP3.2&lt;/td&gt;&lt;td style=&quot;border-right:1px solid #000000;border-bottom:1px solid #000000;overflow:hidden;padding:2px 3px 2px 3px;vertical-align:bottom;text-align:center;&quot;&gt;gestion de partie : être capable de lancer et finir une partie suivant les règles&lt;/td&gt;&lt;td style=&quot;border-right:1px solid #000000;border-bottom:1px solid #000000;overflow:hidden;padding:2px 3px 2px 3px;vertical-align:bottom;text-align:center;&quot;&gt;Test unique&lt;/td&gt;&lt;td style=&quot;border-right:1px solid #000000;border-bottom:1px solid #000000;overflow:hidden;padding:2px 3px 2px 3px;vertical-align:bottom;text-align:center;&quot;&gt;-&lt;/td&gt;&lt;td style=&quot;border-right:1px solid #000000;border-bottom:1px solid #000000;overflow:hidden;padding:2px 3px 2px 3px;vertical-align:bottom;text-align:center;&quot;&gt;0&lt;/td&gt;&lt;td style=&quot;border-right:1px solid #000000;border-bottom:1px solid #000000;overflow:hidden;padding:2px 3px 2px 3px;vertical-align:bottom;text-align:center;&quot;&gt;F0&lt;/td&gt;&lt;/tr&gt;&lt;tr style=&quot;height:21px;&quot;&gt;&lt;td style=&quot;border-right:1px solid #000000;border-bottom:1px solid #000000;border-left:1px solid #000000;overflow:hidden;padding:2px 3px 2px 3px;vertical-align:bottom;text-align:center;&quot;&gt;FSP3.3&lt;/td&gt;&lt;td style=&quot;border-right:1px solid #000000;border-bottom:1px solid #000000;overflow:hidden;padding:2px 3px 2px 3px;vertical-align:bottom;text-align:center;&quot;&gt;Interface  sonore&lt;/td&gt;&lt;td style=&quot;border-right:1px solid #000000;border-bottom:1px solid #000000;overflow:hidden;padding:2px 3px 2px 3px;vertical-align:bottom;text-align:center;&quot;&gt;nombre d&#39;annonce corrélé / nombre d&#39;annonce décoréllée&lt;/td&gt;&lt;td style=&quot;border-right:1px solid #000000;border-bottom:1px solid #000000;overflow:hidden;padding:2px 3px 2px 3px;vertical-align:bottom;text-align:center;&quot;&gt;3/0&lt;/td&gt;&lt;td style=&quot;border-right:1px solid #000000;border-bottom:1px solid #000000;overflow:hidden;padding:2px 3px 2px 3px;vertical-align:bottom;text-align:center;&quot;&gt;60/0&lt;/td&gt;&lt;td style=&quot;border-right:1px solid #000000;border-bottom:1px solid #000000;overflow:hidden;padding:2px 3px 2px 3px;vertical-align:bottom;text-align:center;&quot;&gt;F2&lt;/td&gt;&lt;/tr&gt;&lt;tr style=&quot;height:21px;&quot;&gt;&lt;td style=&quot;border-right:1px solid #000000;border-bottom:1px solid #000000;border-left:1px solid #000000;overflow:hidden;padding:2px 3px 2px 3px;vertical-align:bottom;text-align:center;&quot;&gt;FSC1&lt;/td&gt;&lt;td style=&quot;border-right:1px solid #000000;border-bottom:1px solid #000000;overflow:hidden;padding:2px 3px 2px 3px;vertical-align:bottom;text-align:center;&quot;&gt;Ne pas être sensible aux écarts de lumière&lt;/td&gt;&lt;td style=&quot;border-right:1px solid #000000;border-bottom:1px solid #000000;overflow:hidden;padding:2px 3px 2px 3px;vertical-align:bottom;text-align:center;&quot;&gt;plage lumineuse de focntionnement&lt;/td&gt;&lt;td style=&quot;border-right:1px solid #000000;border-bottom:1px solid #000000;overflow:hidden;padding:2px 3px 2px 3px;vertical-align:bottom;text-align:center;&quot;&gt;200 - 500 lux&lt;/td&gt;&lt;td style=&quot;border-right:1px solid #000000;border-bottom:1px solid #000000;overflow:hidden;padding:2px 3px 2px 3px;vertical-align:bottom;text-align:center;&quot;&gt;10lux&lt;/td&gt;&lt;td style=&quot;border-right:1px solid #000000;border-bottom:1px solid #000000;overflow:hidden;padding:2px 3px 2px 3px;vertical-align:bottom;text-align:center;&quot;&gt;F0&lt;/td&gt;&lt;/tr&gt;&lt;tr style=&quot;height:21px;&quot;&gt;&lt;td style=&quot;border-right:1px solid #000000;border-bottom:1px solid #000000;border-left:1px solid #000000;overflow:hidden;padding:2px 3px 2px 3px;vertical-align:bottom;text-align:center;&quot;&gt;FSC2&lt;/td&gt;&lt;td style=&quot;border-right:1px solid #000000;border-bottom:1px solid #000000;overflow:hidden;padding:2px 3px 2px 3px;vertical-align:bottom;text-align:center;&quot;&gt;- Ne présenter aucuns dangers&lt;/td&gt;&lt;td style=&quot;border-right:1px solid #000000;border-bottom:1px solid #000000;overflow:hidden;padding:2px 3px 2px 3px;vertical-align:bottom;text-align:center;&quot;&gt;répondre au normes de sécurité robot &lt;/td&gt;&lt;td style=&quot;border-right:1px solid #000000;border-bottom:1px solid #000000;overflow:hidden;padding:2px 3px 2px 3px;vertical-align:bottom;text-align:center;&quot;&gt;(ISO 10218-1)&lt;/td&gt;&lt;td style=&quot;border-right:1px solid #000000;border-bottom:1px solid #000000;overflow:hidden;padding:2px 3px 2px 3px;vertical-align:bottom;text-align:center;&quot;&gt;0&lt;/td&gt;&lt;td style=&quot;border-right:1px solid #000000;border-bottom:1px solid #000000;overflow:hidden;padding:2px 3px 2px 3px;vertical-align:bottom;text-align:center;&quot;&gt;F1&lt;/td&gt;&lt;/tr&gt;&lt;tr style=&quot;height:21px;&quot;&gt;&lt;td style=&quot;border-right:1px solid #000000;border-bottom:1px solid #000000;border-left:1px solid #000000;overflow:hidden;padding:2px 3px 2px 3px;vertical-align:bottom;text-align:center;&quot;&gt;FSC3&lt;/td&gt;&lt;td style=&quot;border-right:1px solid #000000;border-bottom:1px solid #000000;overflow:hidden;padding:2px 3px 2px 3px;vertical-align:bottom;text-align:center;&quot;&gt;Sécurité électrique &lt;/td&gt;&lt;td style=&quot;border-right:1px solid #000000;border-bottom:1px solid #000000;overflow:hidden;padding:2px 3px 2px 3px;vertical-align:bottom;text-align:center;&quot;&gt;ne pas présenter de risque éléctrique&lt;/td&gt;&lt;td style=&quot;border-right:1px solid #000000;border-bottom:1px solid #000000;overflow:hidden;padding:2px 3px 2px 3px;vertical-align:bottom;text-align:center;&quot;&gt;EN 60335&lt;/td&gt;&lt;td style=&quot;border-right:1px solid #000000;border-bottom:1px solid #000000;overflow:hidden;padding:2px 3px 2px 3px;vertical-align:bottom;text-align:center;&quot;&gt;0&lt;/td&gt;&lt;td style=&quot;border-right:1px solid #000000;border-bottom:1px solid #000000;overflow:hidden;padding:2px 3px 2px 3px;vertical-align:bottom;text-align:center;&quot;&gt;F1&lt;/td&gt;&lt;/tr&gt;&lt;tr style=&quot;height:21px;&quot;&gt;&lt;td style=&quot;border-right:1px solid #000000;border-bottom:1px solid #000000;border-left:1px solid #000000;overflow:hidden;padding:2px 3px 2px 3px;vertical-align:bottom;text-align:center;&quot;&gt;FSC4&lt;/td&gt;&lt;td style=&quot;border-right:1px solid #000000;border-bottom:1px solid #000000;overflow:hidden;padding:2px 3px 2px 3px;vertical-align:bottom;text-align:center;&quot;&gt;Possibilité de faire jouer 2 robots de façon autonome&lt;/td&gt;&lt;td style=&quot;border-right:1px solid #000000;border-bottom:1px solid #000000;overflow:hidden;padding:2px 3px 2px 3px;vertical-align:bottom;text-align:center;&quot;&gt;nombre d&#39;intervention humaine sur 30min&lt;/td&gt;&lt;td style=&quot;border-right:1px solid #000000;border-bottom:1px solid #000000;overflow:hidden;padding:2px 3px 2px 3px;vertical-align:bottom;text-align:center;&quot;&gt;1&lt;/td&gt;&lt;td style=&quot;border-right:1px solid #000000;border-bottom:1px solid #000000;overflow:hidden;padding:2px 3px 2px 3px;vertical-align:bottom;text-align:center;&quot;&gt;1&lt;/td&gt;&lt;td style=&quot;border-right:1px solid #000000;border-bottom:1px solid #000000;overflow:hidden;padding:2px 3px 2px 3px;vertical-align:bottom;text-align:center;&quot;&gt;F2&lt;/td&gt;&lt;/tr&gt;&lt;/tbody&gt;&lt;/table&gt;" id="_yf6G-bzq4-rHUXp4GzS-1">
          <mxCell style="text;whiteSpace=wrap;html=1;" vertex="1" parent="1">
            <mxGeometry x="29" y="809" width="560" height="360" as="geometry" />
          </mxCell>
        </UserObject>
        <mxCell id="_yf6G-bzq4-rHUXp4GzS-22" value="Isolation partille de la lumière naturelle" style="rounded=0;whiteSpace=wrap;html=1;" vertex="1" parent="1">
          <mxGeometry x="500" y="1780" width="120" height="60" as="geometry" />
        </mxCell>
        <mxCell id="_yf6G-bzq4-rHUXp4GzS-36" style="edgeStyle=orthogonalEdgeStyle;rounded=0;orthogonalLoop=1;jettySize=auto;html=1;exitX=0.5;exitY=1;exitDx=0;exitDy=0;entryX=0.5;entryY=0;entryDx=0;entryDy=0;fontSize=12;startSize=8;endSize=8;" edge="1" parent="1" source="_yf6G-bzq4-rHUXp4GzS-30" target="_yf6G-bzq4-rHUXp4GzS-32">
          <mxGeometry relative="1" as="geometry" />
        </mxCell>
        <mxCell id="_yf6G-bzq4-rHUXp4GzS-37" style="edgeStyle=orthogonalEdgeStyle;rounded=0;orthogonalLoop=1;jettySize=auto;html=1;exitX=0.5;exitY=1;exitDx=0;exitDy=0;entryX=0.5;entryY=0;entryDx=0;entryDy=0;fontSize=12;startSize=8;endSize=8;" edge="1" parent="1" source="_yf6G-bzq4-rHUXp4GzS-30" target="_yf6G-bzq4-rHUXp4GzS-31">
          <mxGeometry relative="1" as="geometry" />
        </mxCell>
        <mxCell id="_yf6G-bzq4-rHUXp4GzS-30" value="Projet tripot robot" style="rounded=0;whiteSpace=wrap;html=1;" vertex="1" parent="1">
          <mxGeometry x="1720" y="1310" width="120" height="60" as="geometry" />
        </mxCell>
        <mxCell id="_yf6G-bzq4-rHUXp4GzS-55" style="edgeStyle=orthogonalEdgeStyle;rounded=0;orthogonalLoop=1;jettySize=auto;html=1;exitX=0.5;exitY=1;exitDx=0;exitDy=0;entryX=0.5;entryY=0;entryDx=0;entryDy=0;fontSize=12;startSize=8;endSize=8;" edge="1" parent="1" source="_yf6G-bzq4-rHUXp4GzS-31" target="_yf6G-bzq4-rHUXp4GzS-47">
          <mxGeometry relative="1" as="geometry" />
        </mxCell>
        <mxCell id="_yf6G-bzq4-rHUXp4GzS-56" style="edgeStyle=orthogonalEdgeStyle;rounded=0;orthogonalLoop=1;jettySize=auto;html=1;exitX=0.5;exitY=1;exitDx=0;exitDy=0;entryX=0.5;entryY=0;entryDx=0;entryDy=0;fontSize=12;startSize=8;endSize=8;" edge="1" parent="1" source="_yf6G-bzq4-rHUXp4GzS-31" target="_yf6G-bzq4-rHUXp4GzS-49">
          <mxGeometry relative="1" as="geometry" />
        </mxCell>
        <mxCell id="_yf6G-bzq4-rHUXp4GzS-57" style="edgeStyle=orthogonalEdgeStyle;rounded=0;orthogonalLoop=1;jettySize=auto;html=1;exitX=0.5;exitY=1;exitDx=0;exitDy=0;entryX=0.5;entryY=0;entryDx=0;entryDy=0;fontSize=12;startSize=8;endSize=8;" edge="1" parent="1" source="_yf6G-bzq4-rHUXp4GzS-31" target="_yf6G-bzq4-rHUXp4GzS-51">
          <mxGeometry relative="1" as="geometry" />
        </mxCell>
        <mxCell id="_yf6G-bzq4-rHUXp4GzS-58" style="edgeStyle=orthogonalEdgeStyle;rounded=0;orthogonalLoop=1;jettySize=auto;html=1;exitX=0.5;exitY=1;exitDx=0;exitDy=0;entryX=0.5;entryY=0;entryDx=0;entryDy=0;fontSize=12;startSize=8;endSize=8;" edge="1" parent="1" source="_yf6G-bzq4-rHUXp4GzS-31" target="_yf6G-bzq4-rHUXp4GzS-48">
          <mxGeometry relative="1" as="geometry" />
        </mxCell>
        <mxCell id="_yf6G-bzq4-rHUXp4GzS-65" style="edgeStyle=orthogonalEdgeStyle;rounded=0;orthogonalLoop=1;jettySize=auto;html=1;exitX=0.5;exitY=1;exitDx=0;exitDy=0;entryX=0.5;entryY=0;entryDx=0;entryDy=0;fontSize=12;startSize=8;endSize=8;" edge="1" parent="1" source="_yf6G-bzq4-rHUXp4GzS-31" target="_yf6G-bzq4-rHUXp4GzS-63">
          <mxGeometry relative="1" as="geometry" />
        </mxCell>
        <mxCell id="_yf6G-bzq4-rHUXp4GzS-66" style="edgeStyle=orthogonalEdgeStyle;rounded=0;orthogonalLoop=1;jettySize=auto;html=1;exitX=0.5;exitY=1;exitDx=0;exitDy=0;entryX=0.5;entryY=0;entryDx=0;entryDy=0;fontSize=12;startSize=8;endSize=8;" edge="1" parent="1" source="_yf6G-bzq4-rHUXp4GzS-31" target="_yf6G-bzq4-rHUXp4GzS-64">
          <mxGeometry relative="1" as="geometry" />
        </mxCell>
        <mxCell id="_yf6G-bzq4-rHUXp4GzS-31" value="Système de contrôle" style="rounded=0;whiteSpace=wrap;html=1;" vertex="1" parent="1">
          <mxGeometry x="1980" y="1535" width="120" height="60" as="geometry" />
        </mxCell>
        <mxCell id="_yf6G-bzq4-rHUXp4GzS-75" style="edgeStyle=orthogonalEdgeStyle;rounded=0;orthogonalLoop=1;jettySize=auto;html=1;exitX=0.5;exitY=1;exitDx=0;exitDy=0;entryX=0.5;entryY=0;entryDx=0;entryDy=0;fontSize=12;startSize=8;endSize=8;" edge="1" parent="1" source="_yf6G-bzq4-rHUXp4GzS-32" target="_yf6G-bzq4-rHUXp4GzS-68">
          <mxGeometry relative="1" as="geometry" />
        </mxCell>
        <mxCell id="_yf6G-bzq4-rHUXp4GzS-76" style="edgeStyle=orthogonalEdgeStyle;rounded=0;orthogonalLoop=1;jettySize=auto;html=1;exitX=0.5;exitY=1;exitDx=0;exitDy=0;entryX=0.5;entryY=0;entryDx=0;entryDy=0;fontSize=12;startSize=8;endSize=8;" edge="1" parent="1" source="_yf6G-bzq4-rHUXp4GzS-32" target="_yf6G-bzq4-rHUXp4GzS-74">
          <mxGeometry relative="1" as="geometry" />
        </mxCell>
        <mxCell id="_yf6G-bzq4-rHUXp4GzS-32" value="interface" style="rounded=0;whiteSpace=wrap;html=1;" vertex="1" parent="1">
          <mxGeometry x="2700" y="1440" width="120" height="60" as="geometry" />
        </mxCell>
        <mxCell id="_yf6G-bzq4-rHUXp4GzS-40" style="edgeStyle=orthogonalEdgeStyle;rounded=0;orthogonalLoop=1;jettySize=auto;html=1;exitX=0.5;exitY=1;exitDx=0;exitDy=0;entryX=0.5;entryY=0;entryDx=0;entryDy=0;fontSize=12;startSize=8;endSize=8;" edge="1" parent="1" source="_yf6G-bzq4-rHUXp4GzS-33" target="_yf6G-bzq4-rHUXp4GzS-39">
          <mxGeometry relative="1" as="geometry" />
        </mxCell>
        <mxCell id="_yf6G-bzq4-rHUXp4GzS-41" style="edgeStyle=orthogonalEdgeStyle;rounded=0;orthogonalLoop=1;jettySize=auto;html=1;exitX=0.5;exitY=1;exitDx=0;exitDy=0;entryX=0.5;entryY=0;entryDx=0;entryDy=0;fontSize=12;startSize=8;endSize=8;" edge="1" parent="1" source="_yf6G-bzq4-rHUXp4GzS-33" target="_yf6G-bzq4-rHUXp4GzS-38">
          <mxGeometry relative="1" as="geometry" />
        </mxCell>
        <mxCell id="_yf6G-bzq4-rHUXp4GzS-33" value="environnement de jeu" style="rounded=0;whiteSpace=wrap;html=1;" vertex="1" parent="1">
          <mxGeometry x="1179" y="1440" width="120" height="60" as="geometry" />
        </mxCell>
        <mxCell id="_yf6G-bzq4-rHUXp4GzS-34" style="edgeStyle=orthogonalEdgeStyle;rounded=0;orthogonalLoop=1;jettySize=auto;html=1;exitX=0.5;exitY=1;exitDx=0;exitDy=0;entryX=0.405;entryY=0.065;entryDx=0;entryDy=0;entryPerimeter=0;fontSize=12;startSize=8;endSize=8;" edge="1" parent="1" source="_yf6G-bzq4-rHUXp4GzS-30" target="_yf6G-bzq4-rHUXp4GzS-33">
          <mxGeometry relative="1" as="geometry" />
        </mxCell>
        <mxCell id="_yf6G-bzq4-rHUXp4GzS-44" style="edgeStyle=orthogonalEdgeStyle;rounded=0;orthogonalLoop=1;jettySize=auto;html=1;exitX=0.5;exitY=1;exitDx=0;exitDy=0;entryX=0.5;entryY=0;entryDx=0;entryDy=0;fontSize=12;startSize=8;endSize=8;" edge="1" parent="1" source="_yf6G-bzq4-rHUXp4GzS-38" target="_yf6G-bzq4-rHUXp4GzS-42">
          <mxGeometry relative="1" as="geometry" />
        </mxCell>
        <mxCell id="_yf6G-bzq4-rHUXp4GzS-45" style="edgeStyle=orthogonalEdgeStyle;rounded=0;orthogonalLoop=1;jettySize=auto;html=1;exitX=0.5;exitY=1;exitDx=0;exitDy=0;entryX=0.5;entryY=0;entryDx=0;entryDy=0;fontSize=12;startSize=8;endSize=8;" edge="1" parent="1" source="_yf6G-bzq4-rHUXp4GzS-38" target="_yf6G-bzq4-rHUXp4GzS-43">
          <mxGeometry relative="1" as="geometry" />
        </mxCell>
        <mxCell id="_yf6G-bzq4-rHUXp4GzS-53" style="edgeStyle=orthogonalEdgeStyle;rounded=0;orthogonalLoop=1;jettySize=auto;html=1;exitX=0.5;exitY=1;exitDx=0;exitDy=0;entryX=0.5;entryY=0;entryDx=0;entryDy=0;fontSize=12;startSize=8;endSize=8;" edge="1" parent="1" source="_yf6G-bzq4-rHUXp4GzS-38" target="_yf6G-bzq4-rHUXp4GzS-52">
          <mxGeometry relative="1" as="geometry" />
        </mxCell>
        <mxCell id="_yf6G-bzq4-rHUXp4GzS-38" value="Gerer la sécurité" style="rounded=0;whiteSpace=wrap;html=1;" vertex="1" parent="1">
          <mxGeometry x="1309" y="1545" width="120" height="60" as="geometry" />
        </mxCell>
        <mxCell id="_yf6G-bzq4-rHUXp4GzS-39" value="gérer la luminosité" style="rounded=0;whiteSpace=wrap;html=1;" vertex="1" parent="1">
          <mxGeometry x="1119" y="1545" width="120" height="60" as="geometry" />
        </mxCell>
        <mxCell id="_yf6G-bzq4-rHUXp4GzS-42" value="Arrêt d&#39;urgence" style="rounded=0;whiteSpace=wrap;html=1;" vertex="1" parent="1">
          <mxGeometry x="1279" y="1660" width="120" height="60" as="geometry" />
        </mxCell>
        <mxCell id="_yf6G-bzq4-rHUXp4GzS-43" value="contrôle vitesse force et portée du bras" style="rounded=0;whiteSpace=wrap;html=1;" vertex="1" parent="1">
          <mxGeometry x="1409" y="1660" width="120" height="60" as="geometry" />
        </mxCell>
        <mxCell id="_yf6G-bzq4-rHUXp4GzS-47" value="traitement d&#39;image" style="rounded=0;whiteSpace=wrap;html=1;" vertex="1" parent="1">
          <mxGeometry x="1730" y="1660" width="120" height="60" as="geometry" />
        </mxCell>
        <mxCell id="_yf6G-bzq4-rHUXp4GzS-48" value="modélisation du jeu" style="rounded=0;whiteSpace=wrap;html=1;" vertex="1" parent="1">
          <mxGeometry x="1860" y="1660" width="120" height="60" as="geometry" />
        </mxCell>
        <mxCell id="_yf6G-bzq4-rHUXp4GzS-61" style="edgeStyle=orthogonalEdgeStyle;rounded=0;orthogonalLoop=1;jettySize=auto;html=1;exitX=0.5;exitY=1;exitDx=0;exitDy=0;entryX=0.5;entryY=0;entryDx=0;entryDy=0;fontSize=12;startSize=8;endSize=8;" edge="1" parent="1" source="_yf6G-bzq4-rHUXp4GzS-49" target="_yf6G-bzq4-rHUXp4GzS-59">
          <mxGeometry relative="1" as="geometry" />
        </mxCell>
        <mxCell id="_yf6G-bzq4-rHUXp4GzS-62" style="edgeStyle=orthogonalEdgeStyle;rounded=0;orthogonalLoop=1;jettySize=auto;html=1;exitX=0.5;exitY=1;exitDx=0;exitDy=0;entryX=0.5;entryY=0;entryDx=0;entryDy=0;fontSize=12;startSize=8;endSize=8;" edge="1" parent="1" source="_yf6G-bzq4-rHUXp4GzS-49" target="_yf6G-bzq4-rHUXp4GzS-60">
          <mxGeometry relative="1" as="geometry" />
        </mxCell>
        <mxCell id="_yf6G-bzq4-rHUXp4GzS-49" value="Déplacement des pion" style="rounded=0;whiteSpace=wrap;html=1;" vertex="1" parent="1">
          <mxGeometry x="1990" y="1660" width="120" height="60" as="geometry" />
        </mxCell>
        <mxCell id="_yf6G-bzq4-rHUXp4GzS-51" value="programme jouant au dames" style="rounded=0;whiteSpace=wrap;html=1;" vertex="1" parent="1">
          <mxGeometry x="2120" y="1660" width="120" height="60" as="geometry" />
        </mxCell>
        <mxCell id="_yf6G-bzq4-rHUXp4GzS-52" value="Mode manuel" style="rounded=0;whiteSpace=wrap;html=1;" vertex="1" parent="1">
          <mxGeometry x="1549" y="1660" width="120" height="60" as="geometry" />
        </mxCell>
        <mxCell id="_yf6G-bzq4-rHUXp4GzS-59" value="Calibration" style="rounded=0;whiteSpace=wrap;html=1;" vertex="1" parent="1">
          <mxGeometry x="1950" y="1789" width="120" height="60" as="geometry" />
        </mxCell>
        <mxCell id="_yf6G-bzq4-rHUXp4GzS-60" value="Fonction de déplacement" style="rounded=0;whiteSpace=wrap;html=1;" vertex="1" parent="1">
          <mxGeometry x="2080" y="1789" width="120" height="60" as="geometry" />
        </mxCell>
        <mxCell id="_yf6G-bzq4-rHUXp4GzS-71" style="edgeStyle=orthogonalEdgeStyle;rounded=0;orthogonalLoop=1;jettySize=auto;html=1;exitX=0.5;exitY=1;exitDx=0;exitDy=0;entryX=0.5;entryY=0;entryDx=0;entryDy=0;fontSize=12;startSize=8;endSize=8;" edge="1" parent="1" source="_yf6G-bzq4-rHUXp4GzS-63" target="_yf6G-bzq4-rHUXp4GzS-67">
          <mxGeometry relative="1" as="geometry" />
        </mxCell>
        <mxCell id="_yf6G-bzq4-rHUXp4GzS-72" style="edgeStyle=orthogonalEdgeStyle;rounded=0;orthogonalLoop=1;jettySize=auto;html=1;exitX=0.5;exitY=1;exitDx=0;exitDy=0;entryX=0.5;entryY=0;entryDx=0;entryDy=0;fontSize=12;startSize=8;endSize=8;" edge="1" parent="1" source="_yf6G-bzq4-rHUXp4GzS-63" target="_yf6G-bzq4-rHUXp4GzS-69">
          <mxGeometry relative="1" as="geometry" />
        </mxCell>
        <mxCell id="_yf6G-bzq4-rHUXp4GzS-73" style="edgeStyle=orthogonalEdgeStyle;rounded=0;orthogonalLoop=1;jettySize=auto;html=1;exitX=0.5;exitY=1;exitDx=0;exitDy=0;entryX=0.5;entryY=0;entryDx=0;entryDy=0;fontSize=12;startSize=8;endSize=8;" edge="1" parent="1" source="_yf6G-bzq4-rHUXp4GzS-63" target="_yf6G-bzq4-rHUXp4GzS-70">
          <mxGeometry relative="1" as="geometry" />
        </mxCell>
        <mxCell id="_yf6G-bzq4-rHUXp4GzS-63" value="Gestion de partie&amp;nbsp;" style="rounded=0;whiteSpace=wrap;html=1;" vertex="1" parent="1">
          <mxGeometry x="2250" y="1660" width="120" height="60" as="geometry" />
        </mxCell>
        <mxCell id="_yf6G-bzq4-rHUXp4GzS-64" value="Gestion audio" style="rounded=0;whiteSpace=wrap;html=1;" vertex="1" parent="1">
          <mxGeometry x="2390" y="1660" width="120" height="60" as="geometry" />
        </mxCell>
        <mxCell id="_yf6G-bzq4-rHUXp4GzS-67" value="Robot vs humain" style="rounded=0;whiteSpace=wrap;html=1;" vertex="1" parent="1">
          <mxGeometry x="2230" y="1789" width="120" height="60" as="geometry" />
        </mxCell>
        <mxCell id="_yf6G-bzq4-rHUXp4GzS-68" value="interface visuel" style="rounded=0;whiteSpace=wrap;html=1;" vertex="1" parent="1">
          <mxGeometry x="2600" y="1530" width="120" height="60" as="geometry" />
        </mxCell>
        <mxCell id="_yf6G-bzq4-rHUXp4GzS-69" value="Robot&amp;nbsp; vs Robot" style="rounded=0;whiteSpace=wrap;html=1;" vertex="1" parent="1">
          <mxGeometry x="2361" y="1789" width="120" height="60" as="geometry" />
        </mxCell>
        <mxCell id="_yf6G-bzq4-rHUXp4GzS-70" value="Partie pré-enregistrer" style="rounded=0;whiteSpace=wrap;html=1;" vertex="1" parent="1">
          <mxGeometry x="2500" y="1789" width="120" height="60" as="geometry" />
        </mxCell>
        <mxCell id="_yf6G-bzq4-rHUXp4GzS-74" value="Communication avec le système de contrôle" style="rounded=0;whiteSpace=wrap;html=1;" vertex="1" parent="1">
          <mxGeometry x="2820" y="1530" width="120" height="60" as="geometry" />
        </mxCell>
        <mxCell id="_yf6G-bzq4-rHUXp4GzS-77" value="Système de préhension et déplacment" style="rounded=0;whiteSpace=wrap;html=1;" vertex="1" parent="1">
          <mxGeometry x="280" y="1310" width="120" height="60" as="geometry" />
        </mxCell>
      </root>
    </mxGraphModel>
  </diagram>
</mxfile>
